<svg width="116" height="92" viewBox="0 0 116 92" fill="none" xmlns="http://www.w3.org/2000/svg">
<circle cx="26.5" cy="30.5" r="26.5" fill="#D4AF37"/>
<path d="M70 92C44.6689 92 24 71.3829 24 46C24 20.6689 44.6689 0 70 0C95.3311 0 116 20.6171 116 46C116 71.3311 95.3311 92 70 92ZM70 1.55405C45.4977 1.55405 25.5541 21.4977 25.5541 46C25.5541 70.5023 45.4977 90.4459 70 90.4459C94.5023 90.4459 114.446 70.5023 114.446 46C114.446 21.4977 94.5023 1.55405 70 1.55405Z" fill="#29231E"/>
<path d="M68.4978 68.8446C68.2388 68.8446 67.9798 68.6892 67.8244 68.4302L56.687 49.1599C56.2208 48.3829 56.1172 47.4504 56.3244 46.6216C56.5316 45.741 57.1014 45.0157 57.8785 44.6013L78.4956 32.6869C80.1014 31.7545 82.1735 32.3243 83.1059 33.9301L94.2433 53.2004C94.4505 53.563 94.3469 54.0292 93.9843 54.2365C93.6217 54.4437 93.1555 54.3401 92.9483 53.9774L81.8109 34.7072C81.2929 33.8265 80.205 33.5675 79.3244 34.0338L58.7073 45.9482C58.2929 46.2072 57.9821 46.5698 57.8785 47.036C57.7749 47.5022 57.8267 47.9684 58.0857 48.4347L69.2231 67.7049C69.4303 68.0675 69.3267 68.5337 68.9641 68.741C68.8087 68.7928 68.6532 68.8446 68.4978 68.8446Z" fill="#29231E"/>
<path d="M91.2393 86.4056C90.9803 86.4056 90.7213 86.2502 90.5659 85.9912L87.0952 80.034C85.9037 77.9101 83.1582 77.1849 81.0862 78.4281L75.6988 81.5362C74.9217 82.0025 73.9893 82.1061 73.1605 81.8989C72.2798 81.6916 71.5546 81.1218 71.1402 80.3448L66.478 72.2637C66.0118 71.4867 65.9082 70.5543 66.1154 69.7254C66.3226 68.8448 66.8925 68.1196 67.6695 67.7052L93.674 52.6826C94.451 52.2164 95.3835 52.1128 96.2123 52.32C97.0929 52.5272 97.8181 53.097 98.2325 53.8741L102.895 61.9552C103.827 63.561 103.257 65.6331 101.651 66.5655L96.2641 69.6736C94.1402 70.8651 93.415 73.6106 94.6582 75.6826L97.9735 81.3808C98.1807 81.7434 98.0771 82.2097 97.7145 82.4169C97.3519 82.6241 96.8857 82.5205 96.6785 82.1579L93.3632 76.4597C91.7055 73.6106 92.6898 69.9844 95.5389 68.3268L100.926 65.2187C101.807 64.7007 102.066 63.6128 101.6 62.7322L96.9375 54.6511C96.6785 54.2367 96.3159 53.9259 95.8497 53.8223C95.3834 53.7187 94.9172 53.7705 94.451 54.0295L68.4465 69.052C68.0321 69.311 67.7213 69.6736 67.6177 70.1398C67.5141 70.6061 67.5659 71.0723 67.8249 71.5385L72.4871 79.6196C72.7461 80.034 73.1087 80.3448 73.5749 80.4484C74.0411 80.552 74.5073 80.5002 74.9735 80.2412L80.3609 77.1331C83.21 75.4754 86.8362 76.4597 88.4938 79.3088L91.9645 85.266C92.1717 85.6286 92.0681 86.0948 91.7055 86.302C91.4983 86.4056 91.3947 86.4056 91.2393 86.4056Z" fill="#29231E"/>
<path d="M103.154 77.8579C102.739 77.8579 102.377 77.4953 102.377 77.0809V34.0854C102.377 33.1011 101.548 32.2723 100.564 32.2723H39.4374C38.4532 32.2723 37.6244 33.1011 37.6244 34.0854V76.5629C37.6244 76.9773 37.2618 77.3399 36.8473 77.3399C36.4329 77.3399 36.0703 76.9773 36.0703 76.5629V34.0854C36.0703 32.2205 37.5726 30.7183 39.4374 30.7183H100.564C102.428 30.7183 103.931 32.2205 103.931 34.0854V77.0809C103.931 77.4953 103.568 77.8579 103.154 77.8579Z" fill="#29231E"/>
<path d="M62.2288 57.6557C62.0734 57.6557 61.918 57.6039 61.7626 57.5003C61.4 57.2412 61.3482 56.775 61.6072 56.4124L64.0419 53.2007C65.5959 51.1286 67.7716 49.6264 70.2581 48.8494C71.1905 48.5903 72.0194 48.0723 72.6928 47.3471L83.4158 36.1579C83.7266 35.8471 84.1928 35.8471 84.5036 36.1579C84.8144 36.4687 84.8144 36.9349 84.5036 37.2457L73.7288 48.4867C72.9 49.3674 71.8121 50.0408 70.6207 50.4034C68.4968 51.025 66.5284 52.3719 65.1815 54.1849L62.7468 57.3967C62.695 57.5521 62.4878 57.6557 62.2288 57.6557Z" fill="#29231E"/>
<path d="M61.1942 44.1869H36.8473C36.4329 44.1869 36.0703 43.8243 36.0703 43.4098C36.0703 42.9954 36.4329 42.6328 36.8473 42.6328H61.1942C61.6086 42.6328 61.9712 42.9954 61.9712 43.4098C61.9712 43.8243 61.6086 44.1869 61.1942 44.1869Z" fill="#29231E"/>
<path d="M103.672 44.1869H87.613C87.1986 44.1869 86.8359 43.8243 86.8359 43.4098C86.8359 42.9954 87.1986 42.6328 87.613 42.6328H103.672C104.086 42.6328 104.449 42.9954 104.449 43.4098C104.449 43.8243 104.086 44.1869 103.672 44.1869Z" fill="#29231E"/>
<path d="M42.2874 40.0425C40.8369 40.0425 39.6973 38.9028 39.6973 37.4524C39.6973 36.0019 40.8369 34.8623 42.2874 34.8623C43.7378 34.8623 44.8774 36.0019 44.8774 37.4524C44.8774 38.9028 43.7378 40.0425 42.2874 40.0425ZM42.2874 36.4164C41.7175 36.4164 41.2513 36.8826 41.2513 37.4524C41.2513 38.0222 41.7175 38.4884 42.2874 38.4884C42.8572 38.4884 43.3234 38.0222 43.3234 37.4524C43.3234 36.8826 42.8572 36.4164 42.2874 36.4164Z" fill="#29231E"/>
<path d="M49.0198 40.0425C47.5693 40.0425 46.4297 38.9028 46.4297 37.4524C46.4297 36.0019 47.5693 34.8623 49.0198 34.8623C50.4702 34.8623 51.6099 36.0019 51.6099 37.4524C51.6099 38.9028 50.4702 40.0425 49.0198 40.0425ZM49.0198 36.4164C48.45 36.4164 47.9837 36.8826 47.9837 37.4524C47.9837 38.0222 48.45 38.4884 49.0198 38.4884C49.5896 38.4884 50.0558 38.0222 50.0558 37.4524C50.0558 36.8826 49.5896 36.4164 49.0198 36.4164Z" fill="#29231E"/>
<path d="M55.2366 40.0425C53.7861 40.0425 52.6465 38.9028 52.6465 37.4524C52.6465 36.0019 53.7861 34.8623 55.2366 34.8623C56.687 34.8623 57.8267 36.0019 57.8267 37.4524C57.8267 38.9028 56.687 40.0425 55.2366 40.0425ZM55.2366 36.4164C54.6668 36.4164 54.2005 36.8826 54.2005 37.4524C54.2005 38.0222 54.6668 38.4884 55.2366 38.4884C55.8064 38.4884 56.2726 38.0222 56.2726 37.4524C56.2726 36.8826 55.8064 36.4164 55.2366 36.4164Z" fill="#29231E"/>
<path d="M43.5817 83.0383C43.1673 83.0383 42.8047 82.6757 42.8047 82.2613V49.6261C42.8047 49.2117 43.1673 48.8491 43.5817 48.8491H57.5682C57.9826 48.8491 58.3452 49.2117 58.3452 49.6261C58.3452 50.0406 57.9826 50.4032 57.5682 50.4032H44.3587V82.2613C44.3587 82.6757 43.9961 83.0383 43.5817 83.0383Z" fill="#29231E"/>
</svg>
