<svg width="159" height="159" viewBox="0 0 159 159" fill="none" xmlns="http://www.w3.org/2000/svg">
<path opacity="0.8" d="M50.5996 60.4534V108.071C50.5996 110.389 52.4215 112.211 54.7402 112.211H138.298C140.617 112.211 142.439 110.389 142.439 108.071V60.4534C142.439 58.1346 140.617 56.3127 138.298 56.3127H54.7402C52.4215 56.3127 50.5996 58.1346 50.5996 60.4534Z" fill="#F3B8B0"/>
<path opacity="0.8" d="M26.5 44.9673V92.5845C26.5 94.9032 28.3219 96.7251 30.6406 96.7251H114.198C116.517 96.7251 118.339 94.9032 118.339 92.5845V44.9673C118.339 42.6485 116.517 40.8267 114.198 40.8267H30.6406C28.3219 40.8267 26.5 42.6485 26.5 44.9673Z" fill="#F3B8B0"/>
<path d="M118.339 50.2673H26.5V62.6892H118.339V50.2673Z" fill="white"/>
</svg>
