<svg width="159" height="159" viewBox="0 0 159 159" fill="none" xmlns="http://www.w3.org/2000/svg">
<path opacity="0.8" d="M103.847 110.969L58.7138 131.175C54.5732 133.08 49.6045 131.175 47.7826 127.034L16.9763 58.2999C15.0716 54.1592 16.9763 49.1905 21.1169 47.3686L66.2498 27.1624C70.3904 25.2577 75.3591 27.1624 77.181 31.303L107.987 99.9545C109.892 104.178 108.07 109.147 103.847 110.969Z" fill="#F3B8B0"/>
<path d="M62.5229 99.292C73.6367 99.292 82.6463 90.2825 82.6463 79.1686C82.6463 68.0547 73.6367 59.0452 62.5229 59.0452C51.409 59.0452 42.3994 68.0547 42.3994 79.1686C42.3994 90.2825 51.409 99.292 62.5229 99.292Z" fill="white"/>
<path d="M70.3913 69.5624L65.2569 66.8296C64.5116 66.4155 63.6835 66.4155 62.9382 66.7468L53.0007 71.2186C52.2554 71.5499 51.7585 72.1296 51.5929 72.8749L50.0194 78.4233C49.6882 79.5827 50.1851 80.7421 51.2616 81.4046L64.8429 89.2718C65.5882 89.6858 66.4163 89.7686 67.2444 89.3546C67.9897 89.0233 68.5694 88.3608 68.7351 87.5327L71.7991 72.378C71.9647 71.2186 71.4679 70.0593 70.3913 69.5624ZM64.5116 68.3202L69.0663 70.7218L58.0522 75.6905L57.4726 71.1358L63.7663 68.3202C63.9319 68.1546 64.2632 68.1546 64.5116 68.3202ZM53.2491 73.2889C53.3319 73.0405 53.4976 72.7921 53.746 72.7093L55.8163 71.7983L56.396 76.353L51.8413 78.4233L53.2491 73.2889ZM56.8101 78.0093L59.6257 84.2202L52.3382 79.9968L56.8101 78.0093ZM66.996 87.2014C66.9132 87.4499 66.7476 87.6983 66.4991 87.8639C66.2507 87.9468 65.9194 87.9468 65.671 87.7811L62.1101 85.7108L58.3835 77.3468L70.0601 72.1296L66.996 87.2014Z" fill="#F28C81"/>
<path opacity="0.8" d="M55.1543 111.631L100.287 131.837C104.428 133.742 109.396 131.837 111.218 127.697L142.025 59.0452C143.929 54.9046 142.025 49.9358 137.884 48.114L92.7512 27.9077C88.6105 26.003 83.6418 27.9077 81.8199 32.0483L51.0137 100.7C49.109 104.841 50.9309 109.726 55.1543 111.631Z" fill="#F3B8B0"/>
<path d="M96.477 99.9549C107.591 99.9549 116.6 90.9453 116.6 79.8314C116.6 68.7176 107.591 59.708 96.477 59.708C85.3631 59.708 76.3535 68.7176 76.3535 79.8314C76.3535 90.9453 85.3631 99.9549 96.477 99.9549Z" fill="white"/>
<path d="M87.2852 72.9574L90.3492 88.112C90.5148 88.9402 91.0945 89.6027 91.8398 89.9339C92.5852 90.2652 93.4961 90.2652 94.2414 89.8511L107.823 81.9839C108.816 81.4042 109.313 80.162 109.065 79.0027L107.491 73.4542C107.243 72.7089 106.746 72.1292 106.084 71.798L96.1461 67.3261C95.4008 66.9949 94.5727 66.9949 93.8274 67.4089L88.693 70.1417C87.5336 70.7214 87.0367 71.8808 87.2852 72.9574ZM95.318 68.8995L101.612 71.7152L101.032 76.2699L90.018 71.3011L94.5727 68.8995C94.7383 68.8167 95.0695 68.8167 95.318 68.8995ZM107.243 79.0855L102.688 77.0152L103.268 72.4605L105.338 73.3714C105.587 73.4542 105.752 73.7027 105.835 73.9511L107.243 79.0855ZM106.663 80.6589L99.3758 84.8824L102.191 78.6714L106.663 80.6589ZM88.9414 72.7089L100.618 77.9261L96.8914 86.2902L93.3305 88.3605C93.082 88.5261 92.7508 88.5261 92.5023 88.4433C92.2539 88.3605 92.0055 88.112 92.0055 87.7808L88.9414 72.7089Z" fill="#F28C81"/>
</svg>
