<svg width="159" height="159" viewBox="0 0 159 159" fill="none" xmlns="http://www.w3.org/2000/svg">
<path opacity="0.8" d="M49.7695 125.709H107.49C109.809 125.709 111.63 123.888 111.63 121.569V38.011C111.63 35.6922 109.809 33.8704 107.49 33.8704H49.7695C47.4508 33.8704 45.6289 35.6922 45.6289 38.011V121.569C45.6289 123.888 47.4508 125.709 49.7695 125.709Z" fill="#F3B8B0"/>
<path d="M119.995 111.3H37.1826C34.8639 111.3 33.042 109.478 33.042 107.159V91.425C33.042 89.1063 34.8639 87.2844 37.1826 87.2844H119.995C122.314 87.2844 124.136 89.1063 124.136 91.425V107.159C124.136 109.395 122.314 111.3 119.995 111.3Z" fill="#F28C81"/>
<path d="M49.736 99.408C49.736 99.944 49.36 100.256 48.744 100.256H47.512V98.52H48.712C49.32 98.52 49.736 98.856 49.736 99.408ZM49.592 96.984C49.592 97.496 49.232 97.776 48.64 97.776H47.512V96.184H48.64C49.232 96.184 49.592 96.48 49.592 96.984ZM50.648 99.504C50.648 98.84 50.168 98.248 49.576 98.144C50.112 97.952 50.52 97.544 50.52 96.872C50.52 96.088 49.896 95.44 48.72 95.44H46.6V101H48.824C49.96 101 50.648 100.352 50.648 99.504ZM55.6311 96.592H54.7191V99.048C54.7191 99.856 54.2791 100.272 53.6071 100.272C52.9431 100.272 52.5031 99.856 52.5031 99.048V96.592H51.5991V99.184C51.5991 100.416 52.3831 101.064 53.4151 101.064C53.9351 101.064 54.4311 100.848 54.7191 100.472V101H55.6311V96.592ZM56.5304 98.776C56.5304 100.136 57.4504 101.072 58.5944 101.072C59.3304 101.072 59.8584 100.72 60.1384 100.344V101H61.0584V96.592H60.1384V97.232C59.8664 96.872 59.3544 96.52 58.6104 96.52C57.4504 96.52 56.5304 97.416 56.5304 98.776ZM60.1384 98.792C60.1384 99.744 59.4904 100.28 58.8024 100.28C58.1224 100.28 57.4664 99.728 57.4664 98.776C57.4664 97.824 58.1224 97.312 58.8024 97.312C59.4904 97.312 60.1384 97.848 60.1384 98.792ZM62.4003 99.776C62.4003 100.672 62.8883 101 63.6723 101H64.3923V100.24H63.8323C63.4483 100.24 63.3203 100.104 63.3203 99.776V97.336H64.3923V96.592H63.3203V95.496H62.4003V96.592H61.8803V97.336H62.4003V99.776ZM67.3029 98.968C67.3029 100.384 68.2949 101.056 69.4629 101.056C70.6229 101.056 71.6469 100.384 71.6469 98.968V95.44H70.7349V98.984C70.7349 99.848 70.2469 100.256 69.4709 100.256C68.7029 100.256 68.2149 99.848 68.2149 98.984V95.44H67.3029V98.968ZM75.9624 101H76.8664V98.4C76.8664 97.168 76.0904 96.52 75.0584 96.52C74.5304 96.52 74.0424 96.736 73.7464 97.096V96.592H72.8344V101H73.7464V98.536C73.7464 97.728 74.1864 97.312 74.8584 97.312C75.5224 97.312 75.9624 97.728 75.9624 98.536V101ZM77.7257 98.776C77.7257 100.136 78.6457 101.072 79.8057 101.072C80.5257 101.072 81.0537 100.736 81.3337 100.336V101H82.2537V95.08H81.3337V97.208C80.9977 96.792 80.3897 96.52 79.8137 96.52C78.6457 96.52 77.7257 97.416 77.7257 98.776ZM81.3337 98.792C81.3337 99.744 80.6857 100.28 79.9977 100.28C79.3177 100.28 78.6617 99.728 78.6617 98.776C78.6617 97.824 79.3177 97.312 79.9977 97.312C80.6857 97.312 81.3337 97.848 81.3337 98.792ZM83.1476 98.776C83.1476 100.136 84.0676 101.072 85.2116 101.072C85.9476 101.072 86.4756 100.72 86.7556 100.344V101H87.6756V96.592H86.7556V97.232C86.4836 96.872 85.9716 96.52 85.2276 96.52C84.0676 96.52 83.1476 97.416 83.1476 98.776ZM86.7556 98.792C86.7556 99.744 86.1076 100.28 85.4196 100.28C84.7396 100.28 84.0836 99.728 84.0836 98.776C84.0836 97.824 84.7396 97.312 85.4196 97.312C86.1076 97.312 86.7556 97.848 86.7556 98.792ZM92.0014 101H92.9054V98.4C92.9054 97.168 92.1294 96.52 91.0974 96.52C90.5694 96.52 90.0814 96.736 89.7854 97.096V96.592H88.8734V101H89.7854V98.536C89.7854 97.728 90.2254 97.312 90.8974 97.312C91.5614 97.312 92.0014 97.728 92.0014 98.536V101ZM93.7648 98.776C93.7648 100.136 94.6848 101.072 95.8448 101.072C96.5648 101.072 97.0928 100.712 97.3728 100.336V101.072C97.3728 101.952 96.8448 102.384 96.1408 102.384C95.5088 102.384 95.0208 102.072 94.8848 101.616H93.9808C94.0928 102.592 94.9648 103.176 96.1408 103.176C97.5168 103.176 98.2928 102.272 98.2928 101.072V96.592H97.3728V97.232C97.1008 96.856 96.5648 96.52 95.8448 96.52C94.6848 96.52 93.7648 97.416 93.7648 98.776ZM97.3728 98.792C97.3728 99.744 96.7248 100.28 96.0368 100.28C95.3568 100.28 94.7008 99.728 94.7008 98.776C94.7008 97.824 95.3568 97.312 96.0368 97.312C96.7248 97.312 97.3728 97.848 97.3728 98.792ZM99.1866 98.776C99.1866 100.136 100.107 101.072 101.251 101.072C101.987 101.072 102.515 100.72 102.795 100.344V101H103.715V96.592H102.795V97.232C102.523 96.872 102.011 96.52 101.267 96.52C100.107 96.52 99.1866 97.416 99.1866 98.776ZM102.795 98.792C102.795 99.744 102.147 100.28 101.459 100.28C100.779 100.28 100.123 99.728 100.123 98.776C100.123 97.824 100.779 97.312 101.459 97.312C102.147 97.312 102.795 97.848 102.795 98.792ZM108.041 101H108.945V98.4C108.945 97.168 108.169 96.52 107.137 96.52C106.609 96.52 106.121 96.736 105.825 97.096V96.592H104.913V101H105.825V98.536C105.825 97.728 106.265 97.312 106.937 97.312C107.601 97.312 108.041 97.728 108.041 98.536V101Z" fill="white"/>
<path d="M80.0807 53.4144L78.6729 54.905L77.1822 53.4144C75.6916 51.9237 73.2072 51.9237 71.7166 53.4144C70.226 54.905 70.226 57.3894 71.7166 58.88L73.2072 60.3706L73.1244 60.4534L78.59 65.919L78.6729 65.8362L84.1385 60.3706L85.6291 58.88C87.1197 57.3894 87.1197 54.905 85.6291 53.4144C84.0557 51.9237 81.6541 51.9237 80.0807 53.4144Z" fill="white"/>
</svg>
