<svg width="159" height="159" viewBox="0 0 159 159" fill="none" xmlns="http://www.w3.org/2000/svg">
<path d="M66.5813 58.383C68.8223 58.383 70.6391 56.5662 70.6391 54.3251C70.6391 52.0841 68.8223 50.2673 66.5813 50.2673C64.3402 50.2673 62.5234 52.0841 62.5234 54.3251C62.5234 56.5662 64.3402 58.383 66.5813 58.383Z" fill="white"/>
<path opacity="0.8" d="M53 132.335H110.72C113.039 132.335 114.861 130.513 114.861 128.194V44.6362C114.861 42.3175 113.039 40.4956 110.72 40.4956H53C50.6813 40.4956 48.8594 42.3175 48.8594 44.6362V128.194C48.8594 130.513 50.6813 132.335 53 132.335Z" fill="#F3B8B0"/>
<path opacity="0.8" d="M59.625 125.709H117.345C119.664 125.709 121.486 123.888 121.486 121.569V38.011C121.486 35.6922 119.664 33.8704 117.345 33.8704H59.625C57.3062 33.8704 55.4844 35.6922 55.4844 38.011V121.569C55.4844 123.888 57.3891 125.709 59.625 125.709Z" fill="#F3B8B0"/>
<path d="M66.5812 52.5033C68.365 52.5033 69.8109 51.0573 69.8109 49.2736C69.8109 47.4899 68.365 46.0439 66.5812 46.0439C64.7975 46.0439 63.3516 47.4899 63.3516 49.2736C63.3516 51.0573 64.7975 52.5033 66.5812 52.5033Z" fill="white"/>
<path d="M108.651 50.847H77.9271C77.099 50.847 76.4365 50.1845 76.4365 49.3563C76.4365 48.5282 77.099 47.8657 77.9271 47.8657H108.651C109.479 47.8657 110.141 48.5282 110.141 49.3563C110.224 50.1845 109.562 50.847 108.651 50.847Z" fill="white"/>
<path d="M66.5812 68.4032C68.365 68.4032 69.8109 66.9572 69.8109 65.1735C69.8109 63.3898 68.365 61.9438 66.5812 61.9438C64.7975 61.9438 63.3516 63.3898 63.3516 65.1735C63.3516 66.9572 64.7975 68.4032 66.5812 68.4032Z" fill="white"/>
<path d="M108.651 66.6641H77.9271C77.099 66.6641 76.4365 66.0016 76.4365 65.1735C76.4365 64.3454 77.099 63.6829 77.9271 63.6829H108.651C109.479 63.6829 110.141 64.3454 110.141 65.1735C110.224 66.0016 109.562 66.6641 108.651 66.6641Z" fill="white"/>
<path d="M66.5812 84.2206C68.365 84.2206 69.8109 82.7746 69.8109 80.9909C69.8109 79.2072 68.365 77.7612 66.5812 77.7612C64.7975 77.7612 63.3516 79.2072 63.3516 80.9909C63.3516 82.7746 64.7975 84.2206 66.5812 84.2206Z" fill="white"/>
<path d="M108.651 82.4812H77.9271C77.099 82.4812 76.4365 81.8187 76.4365 80.9906C76.4365 80.1625 77.099 79.5 77.9271 79.5H108.651C109.479 79.5 110.141 80.1625 110.141 80.9906C110.224 81.8187 109.562 82.4812 108.651 82.4812Z" fill="white"/>
</svg>
