<svg width="119" height="92" viewBox="0 0 119 92" fill="none" xmlns="http://www.w3.org/2000/svg">
<circle cx="26.5" cy="30.5" r="26.5" fill="#D4AF37"/>
<path d="M73 92C47.6689 92 27 71.3829 27 46C27 20.6689 47.6689 0 73 0C98.3311 0 119 20.6171 119 46C119 71.3311 98.3311 92 73 92ZM73 1.55405C48.4977 1.55405 28.5541 21.4977 28.5541 46C28.5541 70.5023 48.4977 90.4459 73 90.4459C97.5023 90.4459 117.446 70.5023 117.446 46C117.446 21.4977 97.5023 1.55405 73 1.55405Z" fill="#29231E"/>
<path d="M86.1575 89.7726C86.0021 89.7726 85.8985 89.7208 85.7431 89.669C84.7588 89.0474 83.8782 88.374 83.1012 87.5451C82.9458 87.4933 82.7904 87.4415 82.6868 87.3379L69.2183 73.2478C67.6124 71.5902 67.716 68.9483 69.3219 67.3942C70.0989 66.6172 71.1868 66.2028 72.2746 66.2546C73.3624 66.2546 74.3985 66.7208 75.1755 67.5496L76.4187 68.8447L72.5854 53.2523C72.0674 51.0767 73.4142 48.8492 75.5899 48.2794L75.6935 48.2276C77.8692 47.7096 80.0967 49.0564 80.6665 51.2321L82.1169 57.0857C82.6868 56.3605 83.4638 55.8424 84.3962 55.6352L84.7588 55.5316C85.7949 55.2726 86.9345 55.428 87.8669 55.9978C88.4368 56.3605 88.9548 56.8785 89.2656 57.4483C89.8354 56.7231 90.6124 56.1532 91.5449 55.946L91.8039 55.8942C93.4097 55.4798 95.0156 56.1014 95.9998 57.2929C96.5696 56.6195 97.3467 56.1014 98.2273 55.8424L98.5381 55.7906C100.714 55.2726 102.941 56.6195 103.511 58.7951L107.293 74.1285C107.448 74.7501 107.552 75.3717 107.603 75.9933C107.655 76.4077 107.344 76.8222 106.93 76.874C106.516 76.9258 106.101 76.615 106.049 76.2005C105.998 75.6307 105.894 75.1127 105.739 74.5429L101.957 59.2096C101.646 57.8627 100.248 57.0339 98.9007 57.3447L98.5899 57.3965C97.7093 57.6037 96.9841 58.3289 96.7251 59.2096C96.6215 59.5722 96.3106 59.7794 95.9998 59.7794C95.6372 59.7794 95.3264 59.5204 95.2746 59.2096C94.912 57.8627 93.5651 57.0857 92.2183 57.3965L91.9593 57.4483C90.8197 57.7073 90.0426 58.7433 90.0426 59.883C90.0426 60.2974 89.7318 60.6082 89.3692 60.66C89.0066 60.7118 88.5922 60.4528 88.5404 60.0902L88.2814 58.9505C88.126 58.2771 87.7115 57.7591 87.1417 57.3965C86.5719 57.0339 85.8985 56.9303 85.2251 57.0857L84.8624 57.1893C84.189 57.3447 83.671 57.7591 83.3084 58.3289C82.9458 58.8987 82.8422 59.5722 82.9976 60.2456C83.1012 60.66 82.8422 61.0744 82.4278 61.178C82.0133 61.2816 81.5989 61.0226 81.4953 60.6082L79.3196 51.6465C79.0088 50.2996 77.6102 49.4708 76.2633 49.7816L76.1597 49.8334C74.8129 50.1442 73.9841 51.5429 74.2949 52.8897L78.3872 69.6735L78.439 69.7771C78.439 69.8289 78.439 69.8807 78.4908 69.9325L78.8534 71.3312C78.957 71.6938 78.8016 72.0046 78.4908 72.2118C78.18 72.3672 77.8174 72.3154 77.5584 72.0564L74.2949 68.6375C73.8287 68.1195 73.1552 67.8604 72.4818 67.8604C71.8084 67.8604 71.135 68.1195 70.6169 68.5857C69.5809 69.5699 69.5291 71.2276 70.5133 72.2636L83.671 85.9911C83.8264 86.0429 83.9818 86.0947 84.0854 86.2501C84.8624 87.0789 85.7431 87.8559 86.7273 88.4776C87.0899 88.6848 87.1935 89.2028 86.9863 89.5654C86.6755 89.669 86.4165 89.7726 86.1575 89.7726Z" fill="#29231E"/>
<path d="M104.6 54.3398H80.7708C80.3563 54.3398 79.9937 53.9772 79.9937 53.5628C79.9937 53.1484 80.3563 52.7858 80.7708 52.7858H104.6C105.325 52.7858 105.895 52.2159 105.895 51.4907V41.1303C105.895 40.4051 105.325 39.8353 104.6 39.8353H41.9194C41.1942 39.8353 40.6244 40.4051 40.6244 41.1303V51.4907C40.6244 52.2159 41.1942 52.7858 41.9194 52.7858H73.5185C73.9329 52.7858 74.2955 53.1484 74.2955 53.5628C74.2955 53.9772 73.9329 54.3398 73.5185 54.3398H41.9194C40.3654 54.3398 39.0703 53.0448 39.0703 51.4907V41.1303C39.0703 39.5763 40.3654 38.2812 41.9194 38.2812H104.6C106.154 38.2812 107.449 39.5763 107.449 41.1303V51.4907C107.449 53.0448 106.154 54.3398 104.6 54.3398Z" fill="#29231E"/>
<path d="M33.6305 69.0518C33.2161 69.0518 32.8535 68.6892 32.8535 68.2748V23.7253C32.8535 23.3109 33.2161 22.9482 33.6305 22.9482C34.045 22.9482 34.4076 23.3109 34.4076 23.7253V68.2748C34.4076 68.6892 34.045 69.0518 33.6305 69.0518Z" fill="#29231E"/>
<path d="M111.851 68.0158C111.437 68.0158 111.074 67.6532 111.074 67.2388V23.7253C111.074 23.3109 111.437 22.9482 111.851 22.9482C112.266 22.9482 112.628 23.3109 112.628 23.7253V67.2388C112.628 67.6532 112.266 68.0158 111.851 68.0158Z" fill="#29231E"/>
<path d="M70.9278 68.0155H33.6305C33.2161 68.0155 32.8535 67.6529 32.8535 67.2385C32.8535 66.824 33.2161 66.4614 33.6305 66.4614H70.9278C71.3423 66.4614 71.7049 66.824 71.7049 67.2385C71.7049 67.6529 71.3423 68.0155 70.9278 68.0155Z" fill="#29231E"/>
<path d="M111.851 68.0155H105.117C104.702 68.0155 104.34 67.6529 104.34 67.2385C104.34 66.824 104.702 66.4614 105.117 66.4614H111.851C112.266 66.4614 112.628 66.824 112.628 67.2385C112.628 67.6529 112.266 68.0155 111.851 68.0155Z" fill="#29231E"/>
<path d="M70.9281 51.18H67.82C67.4056 51.18 67.043 50.8174 67.043 50.403C67.043 49.9886 67.4056 49.626 67.82 49.626H70.9281C71.3425 49.626 71.7051 49.9886 71.7051 50.403C71.7051 50.8174 71.3425 51.18 70.9281 51.18Z" fill="#29231E"/>
<path d="M85.9515 51.18H82.8434C82.429 51.18 82.0664 50.8174 82.0664 50.403C82.0664 49.9886 82.429 49.626 82.8434 49.626H85.9515C86.366 49.626 86.7286 49.9886 86.7286 50.403C86.7286 50.8174 86.366 51.18 85.9515 51.18Z" fill="#29231E"/>
<path d="M73.4138 47.7094C73.2066 47.7094 72.9994 47.6576 72.844 47.5022L69.8913 44.5495C69.5805 44.2386 69.5805 43.7724 69.8913 43.4616C70.2021 43.1508 70.6683 43.1508 70.9791 43.4616L73.9319 46.4143C74.2427 46.7251 74.2427 47.1914 73.9319 47.5022C73.8282 47.6058 73.621 47.7094 73.4138 47.7094Z" fill="#29231E"/>
<path d="M80.3557 47.7094C80.1485 47.7094 79.9412 47.6576 79.7858 47.5022C79.475 47.1914 79.475 46.7251 79.7858 46.4143L82.7385 43.4616C83.0494 43.1508 83.5156 43.1508 83.8264 43.4616C84.1372 43.7724 84.1372 44.2386 83.8264 44.5495L80.8737 47.5022C80.7701 47.6058 80.5629 47.7094 80.3557 47.7094Z" fill="#29231E"/>
<path d="M76.8864 46.2587C76.472 46.2587 76.1094 45.8961 76.1094 45.4817V41.3376C76.1094 40.9232 76.472 40.5605 76.8864 40.5605C77.3008 40.5605 77.6634 40.9232 77.6634 41.3376V45.4817C77.6634 45.8961 77.3008 46.2587 76.8864 46.2587Z" fill="#29231E"/>
</svg>
