<svg width="46" height="46" viewBox="0 0 46 46" fill="none" xmlns="http://www.w3.org/2000/svg">
<path d="M24.1979 6.51663V5.03121H26.5938V2.63538H19.4062V5.03121H21.8021V6.51663C13.249 7.13954 6.46875 14.2791 6.46875 23C6.46875 32.1041 13.8958 39.5312 23 39.5312C32.1042 39.5312 39.5312 32.1041 39.5312 23C39.5312 14.2791 32.751 7.13954 24.1979 6.51663ZM23 37.1354C15.2135 37.1354 8.86458 30.7864 8.86458 23C8.86458 15.2135 15.2135 8.86454 23 8.86454C30.7865 8.86454 37.1354 15.2135 37.1354 23C37.1354 30.7864 30.7865 37.1354 23 37.1354Z" fill="#D4AF37"/>
<path d="M21.8013 20.101L15.2128 13.5364L13.5117 15.2375L22.1367 23.8624C22.3763 24.102 22.6638 24.2218 22.9753 24.2218C23.119 24.2218 23.2867 24.1979 23.4305 24.126C23.8857 23.9343 24.1732 23.5031 24.1732 23.0239V13.4166H21.8013V20.101Z" fill="#D4AF37"/>
<path d="M14.1824 17.8968L13.1762 17.2499L12.1699 16.603C12.146 16.627 12.0022 16.8426 11.8105 17.2259L13.9428 18.328C14.0866 18.0645 14.1824 17.8968 14.1824 17.8968Z" fill="#D4AF37"/>
<path d="M13.4895 19.3584L11.2613 18.4958C11.0936 18.9271 10.9499 19.3584 10.8301 19.8136L13.154 20.4365C13.2259 20.0531 13.3457 19.6938 13.4895 19.3584Z" fill="#D4AF37"/>
<path d="M12.8882 21.5385L10.5402 21.1552C10.4684 21.6104 10.4204 22.0656 10.3965 22.5447L12.7923 22.6645C12.7923 22.2812 12.8402 21.8979 12.8882 21.5385Z" fill="#D4AF37"/>
<path d="M13.2004 25.9707L10.9004 26.6655C11.0441 27.0968 11.1879 27.552 11.3796 27.9593L13.5837 27.0249C13.416 26.6655 13.2962 26.3301 13.2004 25.9707Z" fill="#D4AF37"/>
<path d="M12.7923 23.7667L10.3965 23.9105C10.4204 24.3657 10.4923 24.8448 10.5642 25.3L12.9121 24.8688C12.8642 24.5094 12.8163 24.1501 12.7923 23.7667Z" fill="#D4AF37"/>
<path d="M14.0883 28.0312L12.0039 29.2052C12.2195 29.5885 12.4591 29.9958 12.7227 30.3792L14.6872 29.0135C14.4716 28.6781 14.256 28.3667 14.0883 28.0312Z" fill="#D4AF37"/>
<path d="M13.5371 31.4572C13.6809 31.6249 13.8246 31.7926 13.9684 31.9363L15.7413 30.3311C15.6215 30.1874 15.5017 30.0436 15.3819 29.9238L13.5371 31.4572Z" fill="#D4AF37"/>
</svg>
