<svg width="14" height="14" viewBox="0 0 14 14" fill="none" xmlns="http://www.w3.org/2000/svg">
<path d="M11.8054 5.69482L10.2669 3.71878C10.0554 3.4417 9.73457 3.28857 9.38457 3.28857H4.66686C4.33145 3.28857 4.0179 3.43441 3.80645 3.69691L2.21686 5.60732C1.89603 5.99378 1.87415 6.56253 2.17311 6.97087L6.1252 12.4396C6.33665 12.7313 6.67207 12.9063 7.02936 12.9063C7.39395 12.9063 7.72207 12.7386 7.93353 12.4396L11.82 7.0292C12.1189 6.63545 12.1044 6.08128 11.8054 5.69482ZM9.69082 4.16357L11.0471 5.90628H5.84082L6.41686 4.01045H9.37728C9.50124 4.01045 9.61061 4.06878 9.69082 4.16357ZM4.3679 4.14899C4.44082 4.06149 4.5502 4.01045 4.66686 4.01045H5.65124L5.0752 5.90628H2.91686L4.3679 4.14899ZM4.95853 6.63545V9.58128L2.82936 6.63545H4.95853ZM7.3502 12.0167C7.27728 12.1188 7.16061 12.1771 7.03665 12.1771C6.9127 12.1771 6.79603 12.1188 6.72311 12.0167L5.6877 10.5948V6.63545H11.2148L7.3502 12.0167Z" fill="white"/>
</svg>
