<svg width="119" height="92" viewBox="0 0 119 92" fill="none" xmlns="http://www.w3.org/2000/svg">
<circle cx="26.5" cy="30.5" r="26.5" fill="#D4AF37"/>
<path d="M73 92C47.6689 92 27 71.3829 27 46C27 20.6689 47.6689 0 73 0C98.3311 0 119 20.6171 119 46C119 71.3311 98.3311 92 73 92ZM73 1.55405C48.4977 1.55405 28.5541 21.4977 28.5541 46C28.5541 70.5023 48.4977 90.4459 73 90.4459C97.5023 90.4459 117.446 70.5023 117.446 46C117.446 21.4977 97.5023 1.55405 73 1.55405Z" fill="#29231E"/>
<path d="M105.636 78.8939C105.221 78.8939 104.859 78.5313 104.859 78.1169V32.2723H87.505C87.0906 32.2723 86.728 31.9097 86.728 31.4953V16.2137H40.6244V76.5628C40.6244 76.9772 40.2618 77.3398 39.8473 77.3398C39.4329 77.3398 39.0703 76.9772 39.0703 76.5628V15.4367C39.0703 15.0223 39.4329 14.6597 39.8473 14.6597H87.505C87.9194 14.6597 88.282 15.0223 88.282 15.4367V30.7182H105.636C106.05 30.7182 106.413 31.0808 106.413 31.4953V78.1169C106.413 78.5313 106.05 78.8939 105.636 78.8939Z" fill="#29231E"/>
<path d="M105.636 32.2724C105.429 32.2724 105.273 32.2206 105.118 32.0652L86.9872 16.0067C86.6764 15.7477 86.6246 15.2296 86.9354 14.9188C87.1944 14.608 87.7124 14.5562 88.0232 14.867L106.154 30.9256C106.465 31.1846 106.516 31.7026 106.206 32.0134C106.05 32.1688 105.843 32.2724 105.636 32.2724Z" fill="#29231E"/>
<path d="M72.9997 91.8446C72.5853 91.8446 72.2227 91.482 72.2227 91.0676V46C72.2227 45.7928 72.3263 45.5856 72.4299 45.4302L79.6821 38.1779C79.9929 37.8671 80.4591 37.8671 80.77 38.1779L88.0222 45.4302C88.1776 45.5856 88.2294 45.7928 88.2294 46V88.4775C88.2294 88.8919 87.8668 89.2545 87.4524 89.2545C87.038 89.2545 86.6754 88.8919 86.6754 88.4775V46.3108L80.2519 39.8356L73.7767 46.3108V91.0676C73.7767 91.482 73.4141 91.8446 72.9997 91.8446Z" fill="#29231E"/>
<path d="M87.5042 46.7767H72.9997C72.5853 46.7767 72.2227 46.4141 72.2227 45.9997C72.2227 45.5853 72.5853 45.2227 72.9997 45.2227H87.5042C87.9186 45.2227 88.2812 45.5853 88.2812 45.9997C88.2812 46.4141 87.9186 46.7767 87.5042 46.7767Z" fill="#29231E"/>
<path d="M80.7709 32.2723H46.5817C46.1673 32.2723 45.8047 31.9097 45.8047 31.4953C45.8047 31.0809 46.1673 30.7183 46.5817 30.7183H80.7709C81.1853 30.7183 81.5479 31.0809 81.5479 31.4953C81.5479 31.9097 81.1853 32.2723 80.7709 32.2723Z" fill="#29231E"/>
<path d="M73.0006 39.5248H46.5817C46.1673 39.5248 45.8047 39.1621 45.8047 38.7477C45.8047 38.3333 46.1673 37.9707 46.5817 37.9707H73.0006C73.415 37.9707 73.7777 38.3333 73.7777 38.7477C73.7777 39.1621 73.415 39.5248 73.0006 39.5248Z" fill="#29231E"/>
<path d="M68.8565 46.7767H46.5817C46.1673 46.7767 45.8047 46.4141 45.8047 45.9997C45.8047 45.5853 46.1673 45.2227 46.5817 45.2227H68.8565C69.2709 45.2227 69.6335 45.5853 69.6335 45.9997C69.6335 46.4141 69.2709 46.7767 68.8565 46.7767Z" fill="#29231E"/>
</svg>
