<svg width="18" height="13" viewBox="0 0 18 13" fill="none" xmlns="http://www.w3.org/2000/svg">
<path fill-rule="evenodd" clip-rule="evenodd" d="M13.353 1.71525L17.5411 5.89925C17.6332 5.96027 17.7087 6.04311 17.761 6.14039C17.8132 6.23767 17.8405 6.34636 17.8404 6.45675C17.8404 6.62975 17.7731 6.78575 17.6653 6.90475L17.665 6.905C17.6503 6.92116 17.6349 6.93659 17.6187 6.95125L13.7452 10.821L13.7297 10.8055C12.542 12.129 10.8181 12.9623 8.89869 12.9623C7.2629 12.9642 5.68722 12.3464 4.48938 11.2335L4.48063 11.2422L0.252497 7.0185C0.173991 6.95641 0.110517 6.87744 0.0667998 6.78745C0.0230827 6.69746 0.000249324 6.59878 0 6.49875C0.000494099 6.33646 0.0603962 6.17996 0.168414 6.05875L0.165411 6.05575L4.06322 2.1615C5.25113 0.83525 6.97681 0 8.89844 0C10.6096 0 12.1649 0.663 13.324 1.74425L13.353 1.71525ZM4.50265 6.48125C4.50265 8.90675 6.47082 10.873 8.89869 10.873C11.3266 10.873 13.295 8.90675 13.295 6.48125C13.295 4.056 11.3266 2.08975 8.89869 2.08975C6.47082 2.08975 4.50265 4.056 4.50265 6.48125ZM11.0485 6.50056C11.0485 7.67582 10.0949 8.62856 8.91845 8.62856C7.74204 8.62856 6.78837 7.67582 6.78837 6.50056C6.78837 5.3253 7.74204 4.37256 8.91845 4.37256C10.0949 4.37256 11.0485 5.3253 11.0485 6.50056Z" fill="#29231E"/>
</svg>
