<svg width="46" height="46" viewBox="0 0 46 46" fill="none" xmlns="http://www.w3.org/2000/svg">
<path d="M42.4062 16.2916C42.4062 16.2676 42.4062 16.2676 42.4062 16.2437C42.3823 15.8364 42.1906 15.477 41.8552 15.2614L23.4073 3.52179C23 3.25824 22.4969 3.2822 22.1135 3.52179L4.14479 15.2614C3.80937 15.477 3.61771 15.8364 3.59375 16.2197C3.59375 16.2437 3.59375 16.2437 3.59375 16.2676V38.3093C3.59375 38.9801 4.12083 39.5072 4.79167 39.5072H41.2083C41.8792 39.5072 42.4062 38.9801 42.4062 38.3093V16.2916ZM31.3854 21.9457L22.7604 28.2228L14.6146 22.1374V14.6145H31.3854V21.9457ZM39.076 16.3635L33.7812 20.2207V13.4166C33.7812 13.2249 33.7333 13.0572 33.6615 12.9135L39.076 16.3635ZM22.7604 5.96554L32.5833 12.2187H13.4167C13.3448 12.2187 13.249 12.2187 13.1771 12.2426L22.7604 5.96554ZM12.4344 12.7218C12.2906 12.9135 12.2188 13.153 12.2188 13.4166V20.3405L6.87604 16.3635L12.4344 12.7218ZM5.98958 37.1353V18.6874L22.0417 30.6666C22.2573 30.8343 22.4969 30.9062 22.7604 30.9062C23 30.9062 23.2635 30.8343 23.4552 30.6666L40.0104 18.6395V37.1353H5.98958Z" fill="#D4AF37"/>
<path d="M21.7786 24.3656C22.09 24.701 22.5452 24.9166 23.0005 24.9166C23.0005 24.9166 23.0244 24.9166 23.0484 24.9166C23.5275 24.9166 23.9828 24.701 24.2942 24.3177L26.9296 21.2031C27.5286 20.4843 27.4328 19.4302 26.738 18.8312C26.0192 18.2323 24.965 18.3281 24.3661 19.0229L22.9525 20.7L21.3713 18.975C20.7484 18.3041 19.6702 18.2562 18.9994 18.8791C18.3286 19.502 18.2807 20.5802 18.9036 21.251L21.7786 24.3656Z" fill="#D4AF37"/>
</svg>
