<svg width="46" height="46" viewBox="0 0 46 46" fill="none" xmlns="http://www.w3.org/2000/svg">
<path d="M31.6723 10.1345C31.4327 9.823 31.1452 9.5355 30.8337 9.29591C26.665 6.27716 21.8973 5.75008 17.8243 7.83446C13.991 9.79904 11.6191 13.6803 11.6191 17.9928C11.6191 20.5563 12.4577 22.9761 14.015 24.9886C14.1108 25.1084 14.1827 25.2282 14.2306 25.324L19.4775 37.1115C20.1004 38.5251 21.466 39.4115 23.0233 39.4115C24.5806 39.4115 25.9462 38.5251 26.5691 37.1115L31.816 25.324C31.8639 25.2282 31.9358 25.1084 32.0316 24.9886C34.5952 21.6345 35.8889 15.9563 31.6723 10.1345ZM30.115 23.5032C29.8993 23.7667 29.7316 24.0542 29.6118 24.3417L24.365 36.1292C24.1254 36.6803 23.6223 37.0157 22.9993 37.0157C22.3764 37.0157 21.8973 36.6803 21.6337 36.1292L16.3868 24.3417C16.2671 24.0542 16.0993 23.7907 15.8837 23.5032C14.6379 21.922 13.991 20.0053 13.991 17.9688C13.991 14.5667 15.8837 11.5001 18.9025 9.94279C20.1962 9.27196 21.5618 8.9605 22.9754 8.9605C25.1316 8.9605 27.3598 9.72716 29.4202 11.2126C29.54 11.2845 29.6358 11.4042 29.7316 11.524C33.1816 16.2917 32.1754 20.8438 30.115 23.5032Z" fill="#D4AF37"/>
<path d="M26.8337 16.4594C26.1149 15.8604 25.0607 15.9563 24.4618 16.651L23.0482 18.3281L21.467 16.6031C20.8441 15.9323 19.7659 15.8844 19.0951 16.5073C18.4243 17.1302 18.3764 18.2083 18.9993 18.8792L21.8743 21.9938C22.1857 22.3292 22.641 22.5448 23.0962 22.5448C23.0962 22.5448 23.1201 22.5448 23.1441 22.5448C23.6232 22.5448 24.0785 22.3292 24.3899 21.9458L27.0253 18.8313C27.6243 18.1125 27.5524 17.0583 26.8337 16.4594Z" fill="#D4AF37"/>
</svg>
