<svg width="46" height="46" viewBox="0 0 46 46" fill="none" xmlns="http://www.w3.org/2000/svg">
<path d="M38.8125 6.46875H7.1875C5.19896 6.46875 3.59375 8.07396 3.59375 10.0625V35.9375C3.59375 37.926 5.19896 39.5312 7.1875 39.5312H38.8125C40.801 39.5312 42.4062 37.926 42.4062 35.9375V10.0625C42.4062 8.07396 40.801 6.46875 38.8125 6.46875ZM40.0104 35.9375C40.0104 36.6083 39.4833 37.1354 38.8125 37.1354H7.1875C6.51667 37.1354 5.98958 36.6083 5.98958 35.9375V10.0625C5.98958 9.39167 6.51667 8.86458 7.1875 8.86458H38.8125C39.4833 8.86458 40.0104 9.39167 40.0104 10.0625V35.9375Z" fill="#D4AF37"/>
<path d="M28.0559 19.8615L21.2757 16.2438C20.1736 15.6449 18.8559 15.6928 17.7777 16.3397C16.6996 16.9865 16.0527 18.1365 16.0527 19.3824V26.6178C16.0527 27.8876 16.6996 29.0136 17.7777 29.6605C18.3527 29.9959 18.9757 30.1636 19.5986 30.1636C20.1736 30.1636 20.7486 30.0199 21.2757 29.7324L28.0559 26.1147C29.2059 25.4917 29.9486 24.2938 29.9486 22.9761C29.9486 21.6824 29.2298 20.4844 28.0559 19.8615ZM26.9298 24.0303L20.1496 27.648C19.6225 27.9355 19.1673 27.7199 18.9996 27.624C18.8319 27.5282 18.4246 27.2167 18.4246 26.6178V19.3824C18.4246 18.7834 18.8079 18.4959 18.9996 18.3761C19.0954 18.3042 19.335 18.2084 19.5986 18.2084C19.7663 18.2084 19.9579 18.2563 20.1496 18.3522L26.9298 21.9699C27.4809 22.2574 27.5527 22.7844 27.5527 23.0001C27.5527 23.2157 27.5048 23.7188 26.9298 24.0303Z" fill="#D4AF37"/>
</svg>
