<svg width="117" height="92" viewBox="0 0 117 92" fill="none" xmlns="http://www.w3.org/2000/svg">
<circle cx="26.5" cy="30.5" r="26.5" fill="#D4AF37"/>
<path d="M71 92C45.6689 92 25 71.3829 25 46C25 20.6689 45.6689 0 71 0C96.3311 0 117 20.6171 117 46C117 71.3311 96.3311 92 71 92ZM71 1.55405C46.4977 1.55405 26.5541 21.4977 26.5541 46C26.5541 70.5023 46.4977 90.4459 71 90.4459C95.5023 90.4459 115.446 70.5023 115.446 46C115.446 21.4977 95.5023 1.55405 71 1.55405Z" fill="#29231E"/>
<path d="M92.757 86.3017H59.0859C57.221 86.3017 55.7188 84.7995 55.7188 82.9346V42.5292C55.7188 40.6644 57.221 39.1621 59.0859 39.1621H116.068C116.482 39.1621 116.845 39.5247 116.845 39.9391C116.845 40.3536 116.482 40.7162 116.068 40.7162H59.0859C58.1016 40.7162 57.2728 41.545 57.2728 42.5292V82.9346C57.2728 83.9189 58.1016 84.7477 59.0859 84.7477H92.757C93.1715 84.7477 93.5341 85.1103 93.5341 85.5247C93.5341 85.9391 93.1715 86.3017 92.757 86.3017Z" fill="#29231E"/>
<path d="M85.5052 40.5609C85.0908 40.5609 84.7282 40.1982 84.7282 39.7838V21.1352C84.7282 20.1509 83.8994 19.3221 82.9152 19.3221H35.2575C34.8431 19.3221 34.4805 18.9595 34.4805 18.5451C34.4805 18.1307 34.8431 17.7681 35.2575 17.7681H82.9152C84.78 17.7681 86.2823 19.2703 86.2823 21.1352V39.7838C86.2823 40.1982 85.9197 40.5609 85.5052 40.5609Z" fill="#29231E"/>
<path d="M55.9772 64.9076H29.5583C29.1439 64.9076 28.7812 64.545 28.7812 64.1305C28.7812 63.7161 29.1439 63.3535 29.5583 63.3535H55.9772C56.3916 63.3535 56.7542 63.7161 56.7542 64.1305C56.7542 64.545 56.3916 64.9076 55.9772 64.9076Z" fill="#29231E"/>
<path d="M85.504 34.3447H27.486C27.0716 34.3447 26.709 33.9821 26.709 33.5677C26.709 33.1532 27.0716 32.7906 27.486 32.7906H84.727V25.0204H31.1121C30.6977 25.0204 30.3351 24.6578 30.3351 24.2433C30.3351 23.8289 30.6977 23.4663 31.1121 23.4663H85.504C85.9184 23.4663 86.2811 23.8289 86.2811 24.2433V33.5677C86.2811 33.9821 85.9184 34.3447 85.504 34.3447Z" fill="#29231E"/>
<path d="M75.1454 52.9933H62.195C61.7806 52.9933 61.418 52.6307 61.418 52.2163V44.964C61.418 44.5496 61.7806 44.187 62.195 44.187H75.1454C75.5599 44.187 75.9225 44.5496 75.9225 44.964V52.2163C75.9225 52.6307 75.5599 52.9933 75.1454 52.9933ZM62.972 51.4393H74.3684V45.7411H62.972V51.4393Z" fill="#29231E"/>
<path d="M104.671 53.5113C101.977 53.5113 99.75 51.2838 99.75 48.5901C99.75 45.8964 101.977 43.6689 104.671 43.6689C107.365 43.6689 109.592 45.8964 109.592 48.5901C109.592 51.2838 107.365 53.5113 104.671 53.5113ZM104.671 45.223C102.806 45.223 101.304 46.7253 101.304 48.5901C101.304 50.455 102.806 51.9572 104.671 51.9572C106.536 51.9572 108.038 50.455 108.038 48.5901C108.038 46.7253 106.536 45.223 104.671 45.223Z" fill="#29231E"/>
<path d="M108.816 53.5113C106.122 53.5113 103.895 51.2838 103.895 48.5901C103.895 45.8964 106.122 43.6689 108.816 43.6689C111.509 43.6689 113.737 45.8964 113.737 48.5901C113.737 51.2838 111.509 53.5113 108.816 53.5113ZM108.816 45.223C106.951 45.223 105.449 46.7253 105.449 48.5901C105.449 50.455 106.951 51.9572 108.816 51.9572C110.681 51.9572 112.183 50.455 112.183 48.5901C112.183 46.7253 110.681 45.223 108.816 45.223Z" fill="#29231E"/>
<path d="M94.8294 71.642H86.0231C85.6087 71.642 85.2461 71.2794 85.2461 70.865V66.2028C85.2461 65.7884 85.6087 65.4258 86.0231 65.4258H94.8294C95.2438 65.4258 95.6065 65.7884 95.6065 66.2028V70.865C95.6065 71.2794 95.2438 71.642 94.8294 71.642ZM86.8001 70.0879H94.0524V66.9798H86.8001V70.0879Z" fill="#29231E"/>
<path d="M82.9157 71.642H62.195C61.7806 71.642 61.418 71.2794 61.418 70.865V66.2028C61.418 65.7884 61.7806 65.4258 62.195 65.4258H82.9157C83.3301 65.4258 83.6927 65.7884 83.6927 66.2028V70.865C83.6927 71.2794 83.3301 71.642 82.9157 71.642ZM62.972 70.0879H82.1387V66.9798H62.972V70.0879Z" fill="#29231E"/>
</svg>
