<svg width="46" height="46" viewBox="0 0 46 46" fill="none" xmlns="http://www.w3.org/2000/svg">
<path d="M31.6732 10.1345C31.4337 9.823 31.1462 9.5355 30.8347 9.29591C26.666 6.27716 21.8982 5.75008 17.8253 7.83446C13.992 9.79904 11.6201 13.6803 11.6201 17.9928C11.6201 20.5563 12.4587 22.9761 14.016 24.9886C14.1118 25.1084 14.1837 25.2282 14.2316 25.324L19.4785 37.1115C20.1014 38.5251 21.467 39.4115 23.0243 39.4115C24.5816 39.4115 25.9472 38.5251 26.5701 37.1115L31.817 25.324C31.8649 25.2282 31.9368 25.1084 32.0326 24.9886C34.5962 21.6345 35.8899 15.9563 31.6732 10.1345ZM30.1159 23.5032C29.9003 23.7667 29.7326 24.0542 29.6128 24.3417L24.366 36.1292C24.1264 36.6803 23.6232 37.0157 23.0003 37.0157C22.3774 37.0157 21.8982 36.6803 21.6347 36.1292L16.3878 24.3417C16.268 24.0542 16.1003 23.7907 15.8847 23.5032C14.6389 21.922 13.992 20.0053 13.992 17.9688C13.992 14.5667 15.8847 11.5001 18.9035 9.94279C20.1972 9.27196 21.5628 8.9605 22.9764 8.9605C25.1326 8.9605 27.3607 9.72716 29.4212 11.2126C29.541 11.2845 29.6368 11.4042 29.7326 11.524C33.1826 16.2917 32.1764 20.8438 30.1159 23.5032Z" fill="#F3B8B0"/>
<path d="M26.8337 16.4594C26.1149 15.8604 25.0607 15.9563 24.4618 16.651L23.0482 18.3281L21.467 16.6031C20.8441 15.9323 19.7659 15.8844 19.0951 16.5073C18.4243 17.1302 18.3764 18.2083 18.9993 18.8792L21.8743 21.9938C22.1857 22.3292 22.641 22.5448 23.0962 22.5448C23.0962 22.5448 23.1201 22.5448 23.1441 22.5448C23.6232 22.5448 24.0785 22.3292 24.3899 21.9458L27.0253 18.8313C27.6243 18.1125 27.5524 17.0583 26.8337 16.4594Z" fill="#F3B8B0"/>
</svg>
