<svg width="46" height="46" viewBox="0 0 46 46" fill="none" xmlns="http://www.w3.org/2000/svg">
<path d="M39.1 3.88134C38.8365 3.64175 38.4531 3.56988 38.1177 3.61779L23 6.44488L7.90625 3.37821C7.54688 3.30634 7.1875 3.40217 6.9 3.61779C6.63646 3.85738 6.46875 4.19279 6.46875 4.55217V38.3334C6.46875 38.9084 6.87604 39.4115 7.45104 39.5074L22.7844 42.3824C22.8562 42.4063 22.9281 42.4063 23 42.4063C23.0719 42.4063 23.1437 42.4063 23.2156 42.3824L38.549 39.5074C39.124 39.4115 39.5312 38.9084 39.5312 38.3334V4.79175C39.5312 4.43238 39.3635 4.09696 39.1 3.88134ZM37.1354 37.3511L23 40.0105L8.86458 37.3511V6.01363L22.7604 8.84071C22.9042 8.86467 23.0719 8.86467 23.2156 8.84071L37.1354 6.22925V37.3511Z" fill="#F3B8B0"/>
<path d="M18.4482 23C18.4482 25.5156 20.4847 27.552 23.0003 27.552C25.5159 27.552 27.5524 25.5156 27.5524 23C27.5524 20.4843 25.5159 18.4479 23.0003 18.4479C20.4847 18.4479 18.4482 20.4843 18.4482 23ZM25.1566 23C25.1566 24.1979 24.1982 25.1562 23.0003 25.1562C21.8024 25.1562 20.8441 24.1979 20.8441 23C20.8441 21.802 21.8024 20.8437 23.0003 20.8437C24.1982 20.8437 25.1566 21.802 25.1566 23Z" fill="#F3B8B0"/>
<path d="M16.195 31.2657L13.2721 33.5418C12.8888 33.8293 12.7211 34.3324 12.8408 34.7876C12.9606 35.2428 13.344 35.6022 13.7992 35.6741L22.6638 37.1116C22.7356 37.1116 22.7836 37.1355 22.8554 37.1355C22.9034 37.1355 22.9513 37.1355 23.0231 37.1355L32.1273 35.9376C32.6065 35.8657 32.9898 35.5303 33.1336 35.0751C33.2534 34.6199 33.1096 34.1168 32.7263 33.8053L29.5638 31.3136C25.6346 28.1991 20.1242 28.1751 16.195 31.2657ZM29.0127 33.9251L22.9034 34.7397L16.9138 33.7574L17.6804 33.1584C20.7471 30.7626 25.0356 30.7626 28.0784 33.1824L29.0127 33.9251Z" fill="#F3B8B0"/>
</svg>
