<svg width="46" height="46" viewBox="0 0 46 46" fill="none" xmlns="http://www.w3.org/2000/svg">
<path d="M38.7882 18.7115L33.733 12.2188C33.0382 11.3084 31.984 10.8053 30.834 10.8053H15.333C14.2309 10.8053 13.2007 11.2845 12.5059 12.147L7.283 18.424C6.22883 19.6938 6.15696 21.5626 7.13925 22.9043L20.1247 40.873C20.8195 41.8313 21.9215 42.4063 23.0955 42.4063C24.2934 42.4063 25.3715 41.8553 26.0663 40.873L38.8361 23.0959C39.8184 21.8022 39.7705 19.9813 38.7882 18.7115ZM31.8403 13.6803L36.2965 19.4063H19.1903L21.083 13.1772H30.8101C31.2174 13.1772 31.5767 13.3688 31.8403 13.6803ZM14.3507 13.6324C14.5903 13.3449 14.9497 13.1772 15.333 13.1772H18.5674L16.6747 19.4063H9.583L14.3507 13.6324ZM16.2913 21.8022V31.4813L9.2955 21.8022H16.2913ZM24.1497 39.4834C23.9101 39.8188 23.5267 40.0105 23.1195 40.0105C22.7122 40.0105 22.3288 39.8188 22.0892 39.4834L18.6872 34.8115V21.8022H36.8476L24.1497 39.4834Z" fill="#F3B8B0"/>
</svg>
