<svg width="46" height="46" viewBox="0 0 46 46" fill="none" xmlns="http://www.w3.org/2000/svg">
<path d="M38.8125 6.46875H7.1875C5.19896 6.46875 3.59375 8.07396 3.59375 10.0625V35.9375C3.59375 37.926 5.19896 39.5312 7.1875 39.5312H38.8125C40.801 39.5312 42.4062 37.926 42.4062 35.9375V10.0625C42.4062 8.07396 40.801 6.46875 38.8125 6.46875ZM40.0104 35.9375C40.0104 36.6083 39.4833 37.1354 38.8125 37.1354H7.1875C6.51667 37.1354 5.98958 36.6083 5.98958 35.9375V10.0625C5.98958 9.39167 6.51667 8.86458 7.1875 8.86458H38.8125C39.4833 8.86458 40.0104 9.39167 40.0104 10.0625V35.9375Z" fill="#F3B8B0"/>
<path d="M28.0549 19.8615L21.2747 16.2438C20.1726 15.6449 18.8549 15.6928 17.7768 16.3397C16.6986 16.9865 16.0518 18.1365 16.0518 19.3824V26.6178C16.0518 27.8876 16.6986 29.0136 17.7768 29.6605C18.3518 29.9959 18.9747 30.1636 19.5976 30.1636C20.1726 30.1636 20.7476 30.0199 21.2747 29.7324L28.0549 26.1147C29.2049 25.4917 29.9476 24.2938 29.9476 22.9761C29.9476 21.6824 29.2288 20.4844 28.0549 19.8615ZM26.9288 24.0303L20.1486 27.648C19.6215 27.9355 19.1663 27.7199 18.9986 27.624C18.8309 27.5282 18.4236 27.2167 18.4236 26.6178V19.3824C18.4236 18.7834 18.807 18.4959 18.9986 18.3761C19.0945 18.3042 19.3341 18.2084 19.5976 18.2084C19.7653 18.2084 19.957 18.2563 20.1486 18.3522L26.9288 21.9699C27.4799 22.2574 27.5518 22.7844 27.5518 23.0001C27.5518 23.2157 27.5038 23.7188 26.9288 24.0303Z" fill="#F3B8B0"/>
</svg>
