<svg width="40" height="34" viewBox="0 0 40 34" fill="none" xmlns="http://www.w3.org/2000/svg">
<path d="M35.8125 0.46875H4.1875C2.19896 0.46875 0.59375 2.07396 0.59375 4.0625V29.9375C0.59375 31.926 2.19896 33.5312 4.1875 33.5312H35.8125C37.801 33.5312 39.4062 31.926 39.4062 29.9375V4.0625C39.4062 2.07396 37.801 0.46875 35.8125 0.46875ZM37.0104 29.9375C37.0104 30.6083 36.4833 31.1354 35.8125 31.1354H4.1875C3.51667 31.1354 2.98958 30.6083 2.98958 29.9375V4.0625C2.98958 3.39167 3.51667 2.86458 4.1875 2.86458H35.8125C36.4833 2.86458 37.0104 3.39167 37.0104 4.0625V29.9375Z" fill="#F3B8B0"/>
</svg>
