<svg width="14" height="16" viewBox="0 0 14 16" fill="none" xmlns="http://www.w3.org/2000/svg">
<path d="M12.0549 4.86153L5.27468 1.24382C4.17259 0.644865 2.85488 0.69278 1.77676 1.33965C0.698632 1.98653 0.0517578 3.13653 0.0517578 4.38236V11.6178C0.0517578 12.8876 0.698632 14.0136 1.77676 14.6605C2.35176 14.9959 2.97468 15.1636 3.59759 15.1636C4.17259 15.1636 4.74759 15.0199 5.27468 14.7324L12.0549 11.1147C13.2049 10.4917 13.9476 9.29382 13.9476 7.97611C13.9476 6.68236 13.2288 5.48445 12.0549 4.86153ZM10.9288 9.03028L4.14863 12.648C3.62155 12.9355 3.16634 12.7199 2.99863 12.624C2.83093 12.5282 2.42363 12.2167 2.42363 11.6178V4.38236C2.42363 3.78341 2.80697 3.4959 2.99863 3.37611C3.09447 3.30424 3.33405 3.20841 3.59759 3.20841C3.7653 3.20841 3.95697 3.25632 4.14863 3.35215L10.9288 6.96986C11.4799 7.25736 11.5518 7.78444 11.5518 8.00007C11.5518 8.21569 11.5038 8.71882 10.9288 9.03028Z" fill="#F3B8B0"/>
</svg>
