<svg width="12" height="12" viewBox="0 0 12 12" fill="none" xmlns="http://www.w3.org/2000/svg">
<path d="M9.99993 1.375C9.99989 1.31658 9.9862 1.25899 9.95996 1.2068C9.93372 1.15461 9.89564 1.10927 9.84878 1.0744C9.80191 1.03953 9.74755 1.01609 9.69002 1.00595C9.63249 0.995812 9.57339 0.999252 9.51743 1.016L4.51743 2.516C4.44016 2.53912 4.37241 2.58653 4.32423 2.6512C4.27604 2.71587 4.24998 2.79435 4.24993 2.875V7.8135C3.92557 7.58767 3.53433 7.47829 3.13988 7.50316C2.74544 7.52803 2.37103 7.68569 2.07761 7.95046C1.78419 8.21524 1.58903 8.57155 1.52392 8.96137C1.4588 9.3512 1.52756 9.75159 1.719 10.0974C1.91044 10.4431 2.21328 10.7139 2.57823 10.8656C2.94318 11.0173 3.34873 11.041 3.72887 10.9329C4.10902 10.8247 4.44135 10.5911 4.67178 10.27C4.90222 9.9489 5.01717 9.55926 4.99793 9.1645C4.99928 9.15138 4.99995 9.13819 4.99993 9.125V5.154L9.24993 3.879V6.814C8.92557 6.58817 8.53433 6.47879 8.13988 6.50366C7.74544 6.52853 7.37103 6.68619 7.07761 6.95096C6.78419 7.21574 6.58903 7.57205 6.52392 7.96187C6.4588 8.3517 6.52756 8.75208 6.719 9.09785C6.91044 9.44362 7.21328 9.7144 7.57823 9.86612C7.94318 10.0178 8.34873 10.0415 8.72887 9.9334C9.10902 9.82525 9.44135 9.5916 9.67178 9.2705C9.90222 8.9494 10.0172 8.55976 9.99793 8.165C9.99929 8.15171 9.99996 8.13836 9.99993 8.125V1.375Z" fill="#120D09"/>
</svg>
