<svg width="24" height="24" viewBox="0 0 24 24" fill="none" xmlns="http://www.w3.org/2000/svg">
<path d="M23.1751 1.65832C23.1093 1.46482 22.9999 1.28904 22.8554 1.14454C22.7109 1.00003 22.5351 0.890687 22.3416 0.824938C20.728 0.27701 19.0353 -0.00168902 17.3312 7.70069e-06C8.75112 7.70069e-06 1.77067 6.98046 1.77067 15.5605C1.76974 16.9823 1.96368 18.3975 2.34707 19.7667L0.383 21.7308C0.136237 21.9817 -0.00142163 22.3198 1.10722e-05 22.6717C0.00144377 23.0235 0.141851 23.3606 0.390649 23.6094C0.639447 23.8581 0.976478 23.9986 1.32833 24C1.68018 24.0014 2.01834 23.8638 2.26916 23.617L4.23334 21.6528C5.60246 22.0362 7.01767 22.2302 8.43946 22.2293C17.0195 22.2293 24 15.2489 24 6.66881C24.0017 4.9647 23.723 3.27193 23.1751 1.65832ZM8.43946 19.5618C7.78176 19.5614 7.12503 19.5111 6.47495 19.4113L17.3851 8.50117C17.6341 8.25081 17.7737 7.91193 17.7732 7.55882C17.7727 7.20572 17.6323 6.86721 17.3826 6.61752C17.1329 6.36782 16.7944 6.22733 16.4413 6.22684C16.0882 6.22635 15.7493 6.3659 15.4989 6.6149L4.58868 17.5251C4.26152 15.3905 4.47536 13.2079 5.2106 11.1774C5.94584 9.14692 7.17895 7.33344 8.79692 5.90318C10.4149 4.47292 12.366 3.47163 14.4713 2.99108C16.5767 2.51053 18.769 2.5661 20.8473 3.15268C21.3886 5.07062 21.4783 7.08787 21.1095 9.04629C20.7406 11.0047 19.9231 12.8511 18.7211 14.4407C17.5192 16.0302 15.9654 17.3198 14.1815 18.2083C12.3977 19.0968 10.4323 19.5601 8.43946 19.5618Z" fill="black"/>
</svg>
