<svg width="20" height="20" viewBox="0 0 20 20" fill="none" xmlns="http://www.w3.org/2000/svg">
<circle cx="10" cy="10" r="10" fill="#98D4FF"/>
<path d="M10.76 12.14H9.68V14H7.7V7H10.9C11.5333 7 12.0833 7.10667 12.55 7.32C13.0167 7.52667 13.3767 7.82667 13.63 8.22C13.8833 8.60667 14.01 9.06333 14.01 9.59C14.01 10.0967 13.89 10.54 13.65 10.92C13.4167 11.2933 13.08 11.5867 12.64 11.8L14.15 14H12.03L10.76 12.14ZM12.01 9.59C12.01 9.26333 11.9067 9.01 11.7 8.83C11.4933 8.65 11.1867 8.56 10.78 8.56H9.68V10.61H10.78C11.1867 10.61 11.4933 10.5233 11.7 10.35C11.9067 10.17 12.01 9.91667 12.01 9.59Z" fill="white"/>
</svg>
