<svg width="1426" height="37" viewBox="0 0 1426 37" fill="none" xmlns="http://www.w3.org/2000/svg">
<rect x="710" width="20" height="37" fill="#120D09"/>
<rect x="739" width="20" height="37" fill="#120D09"/>
<rect x="768" width="20" height="37" fill="#120D09"/>
<rect x="797" width="20" height="37" fill="#120D09"/>
<rect x="826" width="20" height="37" fill="#120D09"/>
<rect x="855" width="20" height="37" fill="#120D09"/>
<rect x="884" width="20" height="37" fill="#120D09"/>
<rect x="913" width="20" height="37" fill="#120D09"/>
<rect x="942" width="20" height="37" fill="#120D09"/>
<rect x="971" width="20" height="37" fill="#120D09"/>
<rect x="1000" width="20" height="37" fill="#120D09"/>
<rect x="1029" width="20" height="37" fill="#120D09"/>
<rect x="1058" width="20" height="37" fill="#120D09"/>
<rect x="1087" width="20" height="37" fill="#120D09"/>
<rect x="1116" width="20" height="37" fill="#120D09"/>
<rect x="1145" width="20" height="37" fill="#120D09"/>
<rect x="1174" width="20" height="37" fill="#120D09"/>
<rect x="1203" width="20" height="37" fill="#120D09"/>
<rect x="1232" width="20" height="37" fill="#120D09"/>
<rect x="1261" width="20" height="37" fill="#120D09"/>
<rect x="1290" width="20" height="37" fill="#120D09"/>
<rect x="1319" width="20" height="37" fill="#120D09"/>
<rect x="1348" width="20" height="37" fill="#120D09"/>
<rect x="1377" width="20" height="37" fill="#120D09"/>
<rect x="1406" width="20" height="37" fill="#120D09"/>
<rect x="-15" width="20" height="37" fill="#120D09"/>
<rect x="14" width="20" height="37" fill="#120D09"/>
<rect x="43" width="20" height="37" fill="#120D09"/>
<rect x="72" width="20" height="37" fill="#120D09"/>
<rect x="101" width="20" height="37" fill="#120D09"/>
<rect x="130" width="20" height="37" fill="#120D09"/>
<rect x="159" width="20" height="37" fill="#120D09"/>
<rect x="188" width="20" height="37" fill="#120D09"/>
<rect x="217" width="20" height="37" fill="#120D09"/>
<rect x="246" width="20" height="37" fill="#120D09"/>
<rect x="275" width="20" height="37" fill="#120D09"/>
<rect x="304" width="20" height="37" fill="#120D09"/>
<rect x="333" width="20" height="37" fill="#120D09"/>
<rect x="362" width="20" height="37" fill="#120D09"/>
<rect x="391" width="20" height="37" fill="#120D09"/>
<rect x="420" width="20" height="37" fill="#120D09"/>
<rect x="449" width="20" height="37" fill="#120D09"/>
<rect x="478" width="20" height="37" fill="#120D09"/>
<rect x="507" width="20" height="37" fill="#120D09"/>
<rect x="536" width="20" height="37" fill="#120D09"/>
<rect x="565" width="20" height="37" fill="#120D09"/>
<rect x="594" width="20" height="37" fill="#120D09"/>
<rect x="623" width="20" height="37" fill="#120D09"/>
<rect x="652" width="20" height="37" fill="#120D09"/>
<rect x="681" width="20" height="37" fill="#120D09"/>
</svg>
