<svg width="402" height="571" viewBox="0 0 402 571" fill="none" xmlns="http://www.w3.org/2000/svg">
<path d="M-20.7765 489.96C-17.3528 490.34 -13.3108 490.14 -8.86202 488.66C-2.4873 486.529 3.515 482.117 8.98903 475.529C15.5753 467.596 21.4405 456.405 26.4551 442.256C38.1727 409.163 72.5931 394.214 105.851 379.762C121.43 372.997 136.15 366.594 148.485 358.482C155.161 354.073 160.498 349.587 164.814 344.748C169.657 339.293 173.092 333.512 175.298 327.09C179.573 314.616 181.745 304.17 182.128 294.224C182.519 283.99 180.916 274.16 177.266 264.126C169.531 242.976 152.387 220.731 129.071 193.805C117.955 180.992 105.637 168.382 92.463 156.327C58.5067 125.306 62.1293 106.14 64.7663 92.1601C64.8878 91.4996 65.0094 90.8392 65.1283 90.2025C65.308 89.2356 64.6661 88.2978 63.6965 88.1419C62.7296 87.9622 61.7918 88.6041 61.6359 89.5736C61.517 90.2103 61.3981 90.847 61.2765 91.5074C58.6395 105.488 54.6549 126.611 90.0747 158.974C103.164 170.924 115.395 183.452 126.403 196.156C174.83 252.037 188.194 278.627 171.959 325.949C163.382 350.919 134.777 363.361 104.478 376.529C87.7864 383.772 70.5379 391.266 55.9787 401.201C39.364 412.521 28.622 425.576 23.1424 441.094C18.2968 454.804 12.6192 465.606 6.33148 473.235C1.29865 479.319 -4.13303 483.361 -9.86049 485.3C-20.861 488.987 -29.3991 483.513 -29.4651 483.458C-30.2946 482.908 -31.4042 483.146 -31.9273 483.954C-32.4768 484.784 -32.2364 485.87 -31.4307 486.417C-31.2326 486.583 -27.1009 489.257 -20.7765 489.96Z" fill="#134500"/>
<path d="M64.7859 441.51C65.3566 441.573 65.9589 441.351 66.3472 440.889C66.9839 440.141 66.8915 439.024 66.1202 438.385C65.9009 438.192 60.813 433.944 53.6248 430.834C45.5648 427.339 38.0992 426.725 31.7562 429.005C32.1604 427.317 32.5647 425.196 32.7656 422.739C33.429 414.821 31.7279 407.387 27.7866 401.269C27.253 400.439 26.1487 400.196 25.3192 400.73C24.4896 401.263 24.2466 402.368 24.7802 403.197C33.2757 416.417 27.2915 431.493 27.2254 431.655C26.9295 432.368 27.1276 433.184 27.722 433.683C28.2926 434.18 29.1512 434.251 29.7958 433.866C35.8799 430.234 43.3826 430.297 52.1083 434.083C58.8368 436.997 63.7504 441.082 63.8164 441.137C64.1308 441.341 64.4531 441.473 64.7859 441.51Z" fill="#134500"/>
<path d="M120.707 382.738C121.492 382.825 122.263 382.381 122.567 381.596C122.911 380.672 122.472 379.636 121.548 379.293L110.516 375.034L106.535 364.073C106.205 363.146 105.174 362.67 104.247 363C103.32 363.33 102.844 364.361 103.175 365.288L107.433 377.002C107.62 377.48 107.985 377.882 108.471 378.056L120.266 382.592C120.425 382.682 120.565 382.722 120.707 382.738Z" fill="#134500"/>
<path d="M171.255 357.186C171.707 357.236 172.204 357.098 172.6 356.781C173.369 356.145 173.469 355.025 172.83 354.28L164.131 343.757L155.636 312.99C155.38 312.047 154.384 311.479 153.441 311.736C152.498 311.992 151.93 312.988 152.186 313.931L160.786 345.046C160.855 345.294 160.974 345.524 161.122 345.709L170.053 356.522C170.394 356.921 170.827 357.138 171.255 357.186Z" fill="#134500"/>
<path d="M180.092 289.136C180.449 289.176 180.843 289.099 181.178 288.896L195.375 280.701C196.224 280.218 196.514 279.119 196.031 278.271C195.547 277.423 194.448 277.132 193.6 277.616L179.403 285.81C178.555 286.293 178.264 287.392 178.748 288.24C179.049 288.779 179.546 289.075 180.092 289.136Z" fill="#134500"/>
<path d="M196.737 304.61C197.379 304.681 198.037 304.393 198.412 303.833C198.959 303.027 198.748 301.897 197.942 301.35L181.799 290.457C180.993 289.91 179.862 290.121 179.315 290.927C178.768 291.733 178.98 292.864 179.785 293.41L195.929 304.303C196.172 304.499 196.452 304.578 196.737 304.61Z" fill="#134500"/>
<path d="M139.772 211.218C140.248 211.271 140.768 211.136 141.146 210.769C141.894 210.106 141.947 208.98 141.281 208.256C140.317 207.186 117.715 182.073 101.819 186.925C100.873 187.205 100.353 188.206 100.633 189.152C100.913 190.098 101.914 190.618 102.86 190.338C109.86 188.204 119.117 193.71 125.639 198.695C132.96 204.299 138.57 210.555 138.61 210.631C138.956 210.983 139.344 211.17 139.772 211.218Z" fill="#134500"/>
<path d="M152.958 227.943C153.409 227.994 153.88 227.877 154.276 227.56C155.042 226.948 155.166 225.83 154.553 225.064C145.479 213.802 145.611 208.714 146.512 206.671C147.704 203.964 151.421 203.655 151.468 203.66C152.438 203.599 153.183 202.743 153.122 201.774C153.062 200.804 152.229 200.062 151.239 200.096C150.996 200.117 145.345 200.5 143.258 205.203C141.073 210.135 143.955 217.556 151.779 227.283C152.075 227.653 152.506 227.893 152.958 227.943Z" fill="#134500"/>
<path d="M96.1638 164.176C96.4491 164.208 96.7661 164.171 97.0699 164.036C97.9787 163.656 98.3855 162.594 98.0052 161.685C94.8935 154.383 94.3653 147.874 96.4446 142.376C98.0034 138.313 100.489 136.303 100.516 136.282C101.282 135.669 101.43 134.554 100.817 133.788C100.204 133.022 99.1132 132.877 98.3259 133.463C98.1938 133.569 95.1345 135.973 93.1927 140.884C91.4489 145.311 90.3074 152.766 94.7214 163.077C94.9644 163.706 95.5456 164.108 96.1638 164.176Z" fill="#134500"/>
<path d="M62.5415 94.8494C62.6367 94.86 62.7318 94.8705 62.8533 94.86C63.6775 94.8072 64.3723 94.1864 64.5097 93.3833C64.9193 90.9978 69.2942 88.4512 71.9387 87.3973C72.8448 87.0407 73.2966 86.0077 72.9427 85.0778C72.5861 84.1717 71.5558 83.6961 70.6232 84.0738C69.968 84.338 65.506 86.1527 62.8641 89.1326C61.4059 86.6598 58.7695 83.5265 54.4027 82.1025C53.4728 81.8065 52.453 82.319 52.1571 83.2489C51.8612 84.1788 52.3737 85.1986 53.3036 85.4945C59.1577 87.3968 61.0041 93.5232 61.0226 93.5733C61.2339 94.2708 61.8283 94.7701 62.5415 94.8494Z" fill="#134500"/>
<path d="M120.114 301.701L155.592 317.511C155.592 317.511 155.592 317.511 155.595 317.487C159.499 327.621 160.74 337.242 160.74 337.242C160.74 337.242 143.877 353.396 120.48 316.809C113.448 305.798 111.668 294.961 112.633 285.2C116.622 294.14 120.114 301.701 120.114 301.701Z" fill="#012C0B"/>
<path d="M146.337 274.505C146.738 275.007 147.161 275.535 147.607 276.066C169.637 293.991 169.295 319.804 169.295 319.804L160.759 337.269C160.759 337.269 159.517 327.647 155.613 317.513C155.254 316.414 144.559 283.141 146.337 274.505Z" fill="#1A3A02"/>
<path d="M131.835 245.621C131.835 245.621 131.832 245.645 131.853 245.672C127.745 258.598 119.277 290.825 135.529 294.894C145.552 297.404 151.82 307.704 155.592 317.511C155.59 317.534 155.59 317.534 155.59 317.534L120.111 301.725C120.111 301.725 116.619 294.164 112.606 285.221C114.84 262.531 131.835 245.621 131.835 245.621Z" fill="#1A3A02"/>
<path d="M155.594 317.487C151.822 307.68 145.553 297.38 135.53 294.87C119.278 290.801 127.746 258.574 131.855 245.648C132.003 246.483 134.554 259.692 146.339 274.505C144.56 283.141 155.256 316.414 155.594 317.487Z" fill="#2D540B"/>
<path d="M156.381 74.9999C161.612 75.5813 165.965 75.1747 169.395 73.7747C173.178 72.2214 174.435 70.0024 174.583 69.754C175.009 68.9589 174.758 67.9682 174.021 67.453C167.387 62.8164 156.006 66.4617 152.139 67.9092C149.481 64.5329 141.094 54.8875 132.128 55.2147C131.235 55.2358 130.508 55.9253 130.41 56.805C130.355 57.3043 129.269 69.2425 150.215 73.9536C152.4 74.4371 154.455 74.7859 156.381 74.9999ZM170.026 69.392C167.965 70.8237 163.332 72.6675 153.956 71.0477C157.969 69.5923 165.205 67.7248 170.026 69.392ZM134.148 58.9053C140.721 59.9729 147.082 67.275 149.277 70.0463C137.606 66.992 134.809 61.6264 134.148 58.9053Z" fill="#CDB30C"/>
<path d="M143.404 115.102C148.635 115.683 152.989 115.277 156.418 113.877C160.201 112.323 161.459 110.104 161.607 109.856C162.032 109.061 161.781 108.07 161.044 107.555C154.411 102.918 143.03 106.564 139.162 108.011C136.505 104.635 128.117 94.9894 119.151 95.3166C118.258 95.3377 117.532 96.0272 117.434 96.9069C117.378 97.4062 116.292 109.344 137.239 114.055C139.423 114.539 141.455 114.885 143.404 115.102ZM157.026 109.491C154.965 110.923 150.331 112.767 140.956 111.147C144.992 109.694 152.226 107.851 157.026 109.491ZM121.172 99.0073C127.742 100.099 134.082 107.374 136.277 110.146C128.138 108.013 124.387 104.732 122.685 102.281C121.837 101.031 121.386 99.8976 121.172 99.0073Z" fill="#CDB30C"/>
<path d="M135.194 173.136C140.424 173.718 144.778 173.311 148.207 171.911C151.99 170.358 153.248 168.139 153.396 167.89C153.821 167.095 153.57 166.104 152.833 165.589C146.2 160.953 134.819 164.598 130.951 166.045C128.294 162.669 119.906 153.024 110.94 153.351C110.047 153.372 109.321 154.062 109.223 154.941C109.167 155.441 108.081 167.379 129.028 172.09C131.212 172.573 133.244 172.92 135.194 173.136ZM148.815 167.526C146.754 168.957 142.12 170.801 132.745 169.181C136.781 167.729 144.017 165.861 148.815 167.526ZM112.961 157.042C119.534 158.109 125.895 165.411 128.09 168.183C116.395 165.126 113.621 159.763 112.961 157.042Z" fill="#CDB30C"/>
<path d="M137.987 236.389C143.217 236.97 147.571 236.563 151 235.163C154.783 233.61 156.041 231.391 156.189 231.143C156.614 230.348 156.363 229.357 155.626 228.842C148.993 224.205 137.612 227.85 133.744 229.298C131.087 225.922 122.699 216.276 113.733 216.603C112.84 216.624 112.114 217.314 112.016 218.194C111.96 218.693 110.874 230.631 131.821 235.342C134.005 235.826 136.061 236.175 137.987 236.389ZM151.632 230.781C149.571 232.212 144.937 234.056 135.562 232.436C139.574 230.981 146.81 229.113 151.632 230.781ZM115.778 220.297C122.348 221.388 128.688 228.664 130.883 231.435C122.744 229.303 118.992 226.022 117.291 223.57C116.42 222.318 115.994 221.163 115.778 220.297Z" fill="#CDB30C"/>
<path d="M147.225 319.589C149.983 319.896 153.236 319.872 157.114 319.413C165.266 318.393 171.313 316.177 175.086 312.769C178.132 310.051 178.558 307.523 178.589 307.237C178.713 306.337 178.156 305.504 177.292 305.264C169.488 303.145 160.015 310.42 156.852 313.101C153.207 310.819 142.056 304.597 133.721 307.907C132.892 308.224 132.432 309.111 132.648 309.978C132.773 310.377 134.814 318.21 147.225 319.589ZM154.887 316.06C146.499 316.813 141.865 314.974 139.432 313.259C138.183 312.374 137.396 311.444 136.878 310.689C143.464 309.471 151.894 314.187 154.887 316.06ZM174.196 308.434C172.743 310.463 169.005 313.778 159.626 315.432C162.915 312.692 169.108 308.518 174.196 308.434Z" fill="#CDB30C"/>
<path d="M163.804 394.556C167.18 394.931 170.16 394.757 172.723 394.007C176.651 392.879 178.136 390.781 178.305 390.56C178.796 389.82 178.667 388.819 177.988 388.214C171.886 382.914 160.185 385.32 156.193 386.369C153.966 382.8 146.866 372.623 138.116 371.651C137.95 371.632 137.807 371.616 137.64 371.598C136.758 371.524 135.968 372.134 135.775 373.003C135.672 373.497 133.331 385.248 153.649 392.152C157.361 393.407 160.737 394.215 163.804 394.556ZM173.801 389.722C171.597 390.921 166.802 392.266 157.633 389.658C161.812 388.654 169.201 387.574 173.801 389.722ZM139.254 375.484C145.677 377.257 151.221 385.19 153.105 388.168C141.833 383.906 139.619 378.268 139.254 375.484Z" fill="#CDB30C"/>
<path d="M130.368 442.662C133.721 443.034 135.589 442.038 135.818 441.92C136.614 441.478 136.936 440.527 136.595 439.695C133.528 432.206 121.979 429.141 117.937 428.258C117.519 424 115.676 411.351 107.954 406.762C107.185 406.315 106.205 406.471 105.645 407.179C105.336 407.578 97.9784 417.038 113.057 432.313C118.811 438.152 124.276 441.599 129.277 442.516C129.655 442.582 130.012 442.622 130.368 442.662ZM132.154 439.153C129.642 439.235 124.765 438.284 117.728 431.87C121.907 432.815 129.011 435.17 132.154 439.153ZM107.656 410.965C112.601 415.414 114.014 425.006 114.37 428.512C106.186 419.635 106.736 413.606 107.656 410.965Z" fill="#CDB30C"/>
<path d="M45.9286 483.847C46.3328 483.892 46.5997 483.873 46.671 483.881C47.5666 483.836 48.2957 483.123 48.3486 482.214C48.9089 474.141 39.8902 466.279 36.662 463.705C38.1917 459.687 42.1179 447.535 37.2256 440.011C36.7554 439.261 35.799 438.986 34.988 439.353C34.5309 439.567 23.7443 444.795 30.5303 465.166C33.1296 472.965 36.4924 478.441 40.5817 481.495C42.9117 483.271 44.9063 483.733 45.9286 483.847ZM34.9156 466.857C38.2495 469.562 43.5646 474.798 44.6237 479.778C42.3545 478.756 38.3813 475.739 34.9156 466.857ZM35.112 443.651C37.5792 449.823 34.6068 459.024 33.3704 462.353C30.9957 454.266 31.8756 449.381 33.0936 446.652C33.7039 445.276 34.4621 444.301 35.112 443.651Z" fill="#CDB30C"/>
<path d="M-23.9883 468.181C-18.7101 468.767 -13.3631 469.169 -7.99236 469.357C11.0681 470.031 30.1181 468.201 48.6451 463.93C85.604 455.378 117.642 437.613 138.88 413.93C153.085 398.082 161.888 380.383 165.07 361.288C168.521 340.635 165.185 319.107 155.189 297.296C127.868 237.767 128.771 179.402 134.325 140.906C140.363 99.1426 153.037 71.0899 153.164 70.8152C153.576 69.9223 153.188 68.8682 152.295 68.456C151.402 68.0439 150.348 68.4322 149.936 69.3251C149.809 69.5998 136.95 98.017 130.835 140.254C127.236 165.055 126.636 189.732 129.012 213.608C132.002 243.45 139.72 272.108 151.945 298.764C170.587 339.372 165.006 379.405 136.236 411.518C92.5755 460.22 6.31519 479.227 -64.46 455.715C-65.3873 455.396 -66.407 455.908 -66.7029 456.838C-67.0226 457.765 -66.5102 458.785 -65.5803 459.081C-52.2368 463.549 -38.2777 466.592 -23.9883 468.181Z" fill="#CDB30C"/>
<path d="M48.4322 431.412C48.4322 431.412 50.7834 432.348 54.3497 434.044C50.7834 432.348 48.4322 431.412 48.4322 431.412Z" fill="#012C0B"/>
<path d="M85.125 457.298C78.2779 446.572 62.8739 438.12 54.349 434.044C50.7827 432.348 48.4315 431.412 48.4315 431.412C48.4315 431.412 76.1842 411.487 100.453 437.195C124.746 462.905 140.28 452.429 140.28 452.429C136.872 457.971 95.5648 473.165 85.125 457.298Z" fill="#1A3A02"/>
<path d="M48.4314 431.412C48.4314 431.412 50.7825 432.348 54.3489 434.044C62.7602 438.06 77.9792 446.443 85.1248 457.298C85.1248 457.298 83.0927 473.199 108.863 476.737L111.917 478.93C102.784 484.005 91.6753 487.367 78.9684 486.051C41.1804 482.14 36.6531 461.37 48.4314 431.412Z" fill="#012C0B"/>
<path d="M85.1232 457.298C77.9776 446.443 62.7797 438.086 54.3472 434.044C62.8484 438.118 78.2761 446.572 85.1232 457.298Z" fill="#012C0B"/>
<path d="M85.1258 457.298C95.5893 473.168 136.897 457.974 140.281 452.429C140.281 452.429 131.304 466.715 115.553 476.759C115.268 476.944 114.983 477.129 114.7 477.29L108.864 476.737C83.0937 473.199 85.1258 457.298 85.1258 457.298Z" fill="#2D540B"/>
<path d="M-5.69231 358.146C-2.30378 381.365 12.6751 383.679 12.6751 383.679C13.0211 384.031 13.4147 384.387 13.8084 384.744C16.701 387.304 19.0732 389.999 21.0307 392.744C30.5274 406.051 30.2627 420.126 30.2627 420.126C5.9183 429.094 -16 414.286 -15.7955 385.16C-15.7 373.473 -11.2509 364.629 -5.69231 358.146Z" fill="#012C0B"/>
<path d="M13.8076 384.744C13.414 384.387 13.0441 384.033 12.6743 383.679L21.1047 370.415C21.1866 370.545 21.2659 370.698 21.3478 370.827C45.1757 395.74 31.0148 419.849 30.2619 420.126C30.2619 420.126 30.5504 406.053 21.0299 392.744C19.0724 389.999 16.6765 387.301 13.8076 384.744Z" fill="#1A3A02"/>
<path d="M16.3234 342.853C16.3234 342.853 -2.1595 368.599 12.6762 383.679C12.6762 383.679 -2.30267 381.365 -5.6912 358.146C3.71662 347.132 16.3234 342.853 16.3234 342.853Z" fill="#2D540B"/>
<path d="M16.3233 342.853C16.3233 342.853 11.7842 354.889 21.1065 370.415L12.6761 383.679C-2.1596 368.599 16.3233 342.853 16.3233 342.853Z" fill="#1A3A02"/>
<path d="M152.863 419.143C141.839 412.213 126.888 387.348 126.888 387.348L115.341 377.11L135.004 379.296C136.406 379.452 137.706 380.102 138.649 381.145C142.149 384.952 150.751 394.838 154.726 404.547C155.846 407.247 157.703 409.595 160.147 411.215C167.43 416.068 173.968 420.261 178.88 419.603C178.882 419.579 163.914 426.051 152.863 419.143Z" fill="#1A3A02"/>
<path d="M115.316 377.108L126.887 387.348C126.887 387.348 132.35 396.452 139.131 405.173L142.667 430.959C129.815 430.084 116.448 422.581 108.016 399.692C108.016 399.692 107.539 382.333 115.316 377.108Z" fill="#012C0B"/>
<path d="M139.134 405.172C143.556 410.863 148.525 416.398 152.868 419.119C163.892 426.049 178.86 419.577 178.86 419.577C178.86 419.577 161.279 432.233 142.646 430.956L139.134 405.172Z" fill="#2D540B"/>
<path d="M110.713 109.928C109.26 119.322 96.9274 136.509 96.9274 136.509L93.4028 147.213L89.1844 133.41C88.8833 132.438 88.9547 131.363 89.3721 130.422C90.9097 126.983 95.0682 118.371 100.394 112.897C101.887 111.378 102.92 109.447 103.298 107.347C104.453 101.072 105.364 95.4693 103.515 92.3995C103.494 92.373 112.167 100.534 110.713 109.928Z" fill="#1A3A02"/>
<path d="M93.3832 147.187L96.9077 136.483C96.9077 136.483 101.433 130.198 105.322 123.144L121.575 113.349C124.705 122.218 123.519 133.327 110.629 145.566C110.629 145.566 99.158 150.886 93.3832 147.187Z" fill="#012C0B"/>
<path d="M105.321 123.145C107.854 118.54 110.135 113.618 110.713 109.928C112.167 100.534 103.518 92.3756 103.518 92.3756C103.518 92.3756 117.057 100.5 121.597 113.352L105.321 123.145Z" fill="#2D540B"/>
<path d="M59.2587 188.236C71.2338 192.239 99.0335 188.132 99.0335 188.132L113.814 190.497L100.088 177.129C99.1105 176.178 97.8267 175.602 96.4635 175.523C91.4653 175.232 78.7688 174.904 69.0522 177.868C66.3365 178.697 63.4437 178.737 60.72 177.904C52.594 175.437 45.4401 173.101 42.9306 169.043C42.9306 169.043 47.2837 184.234 59.2587 188.236Z" fill="#1A3A02"/>
<path d="M113.816 190.473L99.0348 188.108C99.0348 188.108 88.856 189.601 78.1594 189.904L56.6891 203.115C65.2587 212.203 79.1014 217.593 101.412 209.819C101.406 209.866 114.687 199.524 113.816 190.473Z" fill="#012C0B"/>
<path d="M78.1564 189.928C71.1795 190.115 63.9938 189.798 59.2571 188.236C47.282 184.234 42.9289 169.043 42.9289 169.043C42.9289 169.043 44.2596 189.987 56.6835 203.162L78.1564 189.928Z" fill="#2D540B"/>
<path d="M97.282 342.08L106.423 326.319C107.744 325.262 109.987 325.006 109.987 325.006C113.896 334.443 119.275 343.658 119.718 351.794C120.51 366.541 107.972 371.935 107.972 371.935C107.972 371.935 102.499 358.377 97.282 342.08Z" fill="#1A3A02"/>
<path d="M97.2808 342.08C102.5 358.353 107.971 371.935 107.971 371.935C95.8214 371.451 87.907 362.099 87.907 362.099C79.6888 352.015 83.6917 335.274 87.1898 325.457L97.2808 342.08Z" fill="#012C0B"/>
<path d="M97.2791 342.08C94.7222 334.117 92.2366 325.513 90.4748 317.542L106.807 302.052C104.897 308.627 106.355 315.432 108.859 322.137L97.2791 342.08Z" fill="#2D540B"/>
<path d="M90.4519 317.54C92.2137 325.51 94.723 334.117 97.2562 342.077L87.1414 325.452C88.8218 320.728 90.3726 317.603 90.3726 317.603L90.4519 317.54Z" fill="#012C0B"/>
<path d="M215.513 308.502L231.784 300.273C232.909 299.026 233.3 296.807 233.3 296.807C224.094 292.366 215.218 286.469 207.11 285.568C192.44 283.937 186.343 296.137 186.343 296.137C186.343 296.137 199.565 302.348 215.513 308.502Z" fill="#1A3A02"/>
<path d="M215.514 308.502C199.563 302.372 186.32 296.134 186.32 296.134C186.124 308.292 195.005 316.741 195.005 316.741C204.594 325.533 221.544 322.458 231.543 319.55L215.514 308.502Z" fill="#012C0B"/>
<path d="M215.514 308.502C223.315 311.511 231.771 314.473 239.635 316.695L256.031 301.283C249.339 302.802 242.658 300.976 236.094 298.104L215.514 308.502Z" fill="#2D540B"/>
<path d="M239.637 316.695C231.772 314.473 223.319 311.487 215.515 308.502L231.548 319.526C236.374 318.113 239.582 316.761 239.582 316.761L239.637 316.695Z" fill="#012C0B"/>
<path d="M164.99 349.677L165.413 354.755L177.982 364.673L182.682 361.368L232.701 378.89C230.252 380.784 201.308 401.902 166.154 378.402C166.154 378.402 154.563 364.452 164.99 349.677Z" fill="#012C0B"/>
<path d="M209.841 354.326C216.95 359.665 225.06 367.475 232.853 378.787C232.853 378.787 232.8 378.829 232.694 378.914L182.702 361.37L209.841 354.326Z" fill="#2D540B"/>
<path d="M182.707 361.347L178.007 364.652L165.438 354.734L165.015 349.656C165.385 349.144 165.755 348.631 166.173 348.124C166.592 355.392 182.707 361.347 182.707 361.347Z" fill="#012C0B"/>
<path d="M166.144 348.145L189.178 343.388C189.178 343.388 196.263 345.042 206.095 351.647C207.305 352.456 206.108 353.911 204.365 355.739L182.705 361.347C182.705 361.347 166.59 355.392 166.144 348.145Z" fill="#1A3A02"/>
<path d="M157.282 189.046L160.901 193.516L151.874 206.738L146.854 207.504C146.313 207.179 145.774 206.83 145.237 206.457C152.442 205.525 157.282 189.046 157.282 189.046Z" fill="#012C0B"/>
<path d="M146.852 207.528L151.872 206.762L160.902 193.517L157.283 189.047L171.363 137.947C173.415 140.27 196.482 167.697 175.437 204.375C175.434 204.399 162.299 216.899 146.852 207.528Z" fill="#012C0B"/>
<path d="M148.396 162.448C153.244 154.996 160.461 146.363 171.209 137.809C171.209 137.809 171.251 137.862 171.359 137.97L157.279 189.07L148.396 162.448Z" fill="#2D540B"/>
<path d="M145.232 206.481L138.893 183.825C138.893 183.825 140.077 176.639 145.984 166.368C146.703 165.1 148.24 166.21 150.179 167.821L157.256 189.043C157.28 189.046 152.439 205.525 145.232 206.481Z" fill="#1A3A02"/>
<path d="M239.017 272.241C215.847 309.838 183.217 285.945 183.217 285.945L183.489 281.113C188.487 279.671 196.323 278.688 208.853 278.131C214.2 277.883 219.299 275.754 223.217 272.122C253.448 244.191 247.193 212.543 242.127 198.356C242.113 198.258 242.095 198.208 242.095 198.208C242.095 198.208 262.187 234.644 239.017 272.241Z" fill="#012C0B"/>
<path d="M219 230.133C222.305 228.767 225.164 227.304 227.621 225.772C231.458 248.631 214.28 276.929 214.072 277.291C212.381 277.777 210.64 278.065 208.849 278.155C196.319 278.712 188.507 279.697 183.485 281.137L184.944 255.665C184.947 255.641 190.281 241.864 219 230.133Z" fill="#2D540B"/>
<path d="M227.621 225.772C245.387 214.701 242.513 200.06 242.122 198.38C247.189 212.566 253.446 244.191 223.212 272.146C220.584 274.573 217.453 276.319 214.072 277.291C214.28 276.929 231.458 248.631 227.621 225.772Z" fill="#1A3A0B"/>
<path d="M27.726 61.8073C27.726 61.8073 28.7588 65.5084 43.2621 71.2364C57.7653 76.9643 59.6458 87.3308 59.6458 87.3308L48.8462 86.3952C48.8462 86.3952 25.3243 71.7218 27.726 61.8073Z" fill="#2D540B"/>
<path d="M27.7261 61.8073C25.3243 71.7218 48.8463 86.3952 48.8463 86.3952L59.6458 87.3308L50.1591 89.3091C21.274 84.1248 27.7261 61.8073 27.7261 61.8073Z" fill="#1A3A02"/>
<path d="M87.8192 62.9747C87.8192 62.9747 87.6605 66.1342 77.0693 73.2851C66.4781 80.4361 66.8397 89.0932 66.8397 89.0932L75.3226 86.4015C75.32 86.4253 91.5095 70.4854 87.8192 62.9747Z" fill="#2D540B"/>
<path d="M87.8198 62.9746C91.5101 70.4853 75.3206 86.4253 75.3206 86.4253L66.8377 89.1169L74.7683 89.0115C96.9861 79.6869 87.8198 62.9746 87.8198 62.9746Z" fill="#1A3A02"/>
</svg>
