<svg width="157" height="221" viewBox="0 0 157 221" fill="none" xmlns="http://www.w3.org/2000/svg">
<path d="M163.503 189.641C162.178 189.788 160.613 189.71 158.891 189.138C156.424 188.313 154.101 186.605 151.982 184.055C149.433 180.985 147.163 176.653 145.222 171.177C140.686 158.368 127.364 152.582 114.491 146.988C108.461 144.37 102.764 141.892 97.9894 138.752C95.4055 137.045 93.3399 135.309 91.6691 133.436C89.7947 131.324 88.4654 129.087 87.6115 126.601C85.9569 121.773 85.1162 117.73 84.9678 113.88C84.8163 109.919 85.4368 106.114 86.8498 102.231C89.8434 94.0445 96.4792 85.4347 105.504 75.0129C109.806 70.0535 114.574 65.1729 119.673 60.507C132.816 48.5001 131.414 41.0818 130.393 35.6707C130.346 35.4151 130.299 35.1595 130.253 34.913C130.183 34.5388 130.432 34.1758 130.807 34.1155C131.181 34.0459 131.544 34.2944 131.605 34.6696C131.651 34.9161 131.697 35.1625 131.744 35.4181C132.765 40.8292 134.307 49.0052 120.597 61.5315C115.531 66.1565 110.797 71.0055 106.536 75.9229C87.7924 97.5518 82.6199 107.844 88.9039 126.16C92.2234 135.824 103.295 140.64 115.023 145.737C121.483 148.54 128.159 151.441 133.794 155.286C140.225 159.668 144.383 164.721 146.504 170.727C148.379 176.034 150.577 180.215 153.011 183.168C154.959 185.522 157.061 187.087 159.278 187.837C163.536 189.264 166.84 187.146 166.866 187.124C167.187 186.911 167.616 187.003 167.819 187.316C168.031 187.637 167.938 188.058 167.627 188.269C167.55 188.334 165.951 189.369 163.503 189.641Z" fill="#134500"/>
<path d="M130.384 170.888C130.163 170.912 129.93 170.827 129.779 170.648C129.533 170.358 129.569 169.926 129.867 169.678C129.952 169.604 131.922 167.959 134.704 166.756C137.823 165.403 140.713 165.166 143.168 166.048C143.012 165.395 142.855 164.573 142.777 163.623C142.521 160.558 143.179 157.681 144.705 155.313C144.911 154.991 145.338 154.897 145.66 155.104C145.981 155.31 146.075 155.738 145.868 156.059C142.58 161.176 144.896 167.011 144.922 167.073C145.036 167.349 144.96 167.665 144.73 167.859C144.509 168.051 144.176 168.079 143.927 167.929C141.572 166.523 138.668 166.548 135.291 168.013C132.686 169.141 130.785 170.722 130.759 170.744C130.637 170.822 130.513 170.874 130.384 170.888Z" fill="#134500"/>
<path d="M108.738 148.14C108.434 148.174 108.136 148.002 108.018 147.698C107.885 147.34 108.055 146.94 108.413 146.807L112.683 145.158L114.223 140.916C114.351 140.557 114.75 140.373 115.109 140.501C115.468 140.628 115.652 141.027 115.524 141.386L113.876 145.92C113.803 146.105 113.662 146.26 113.474 146.328L108.909 148.084C108.847 148.118 108.793 148.134 108.738 148.14Z" fill="#134500"/>
<path d="M89.1729 138.25C88.9981 138.269 88.8058 138.216 88.6525 138.094C88.3549 137.847 88.316 137.414 88.5635 137.125L91.9304 133.052L95.2184 121.144C95.3176 120.779 95.703 120.559 96.0681 120.658C96.4331 120.758 96.653 121.143 96.5538 121.508L93.225 133.551C93.1984 133.648 93.1524 133.736 93.0951 133.808L89.6382 137.993C89.5063 138.148 89.3386 138.232 89.1729 138.25Z" fill="#134500"/>
<path d="M85.7528 111.911C85.6148 111.926 85.4625 111.897 85.3326 111.818L79.8375 108.646C79.5092 108.459 79.3967 108.034 79.5839 107.706C79.771 107.377 80.1963 107.265 80.5246 107.452L86.0197 110.624C86.3479 110.811 86.4604 111.236 86.2733 111.564C86.1567 111.773 85.9645 111.887 85.7528 111.911Z" fill="#134500"/>
<path d="M79.311 117.9C79.0625 117.928 78.8079 117.816 78.6627 117.6C78.451 117.288 78.5328 116.85 78.8447 116.638L85.0931 112.422C85.4049 112.211 85.8426 112.292 86.0542 112.604C86.2659 112.916 86.1841 113.354 85.8723 113.565L79.6238 117.782C79.5298 117.857 79.4214 117.888 79.311 117.9Z" fill="#134500"/>
<path d="M101.361 81.7524C101.177 81.7729 100.976 81.7207 100.83 81.5786C100.54 81.322 100.52 80.8864 100.777 80.6062C101.151 80.1921 109.899 70.4717 116.051 72.3498C116.418 72.4582 116.619 72.8457 116.511 73.2118C116.402 73.5779 116.015 73.7793 115.649 73.6709C112.939 72.8448 109.356 74.9759 106.832 76.9055C103.998 79.0743 101.827 81.4957 101.811 81.5254C101.677 81.6614 101.527 81.734 101.361 81.7524Z" fill="#134500"/>
<path d="M96.2546 88.2262C96.0798 88.2456 95.8978 88.2007 95.7444 88.078C95.4479 87.8407 95.3998 87.4082 95.637 87.1117C99.1492 82.7526 99.098 80.7832 98.7493 79.9928C98.2881 78.9447 96.8494 78.8252 96.831 78.8272C96.4557 78.8037 96.1674 78.4724 96.1909 78.0972C96.2144 77.7219 96.5364 77.4346 96.9199 77.4478C97.014 77.456 99.2011 77.6042 100.009 79.4242C100.855 81.3333 99.7392 84.2055 96.7107 87.9706C96.5962 88.1137 96.4295 88.2068 96.2546 88.2262Z" fill="#134500"/>
<path d="M118.238 63.5449C118.127 63.5572 118.005 63.5429 117.887 63.4908C117.535 63.3435 117.378 62.9325 117.525 62.5807C118.73 59.7545 118.934 57.235 118.129 55.1072C117.526 53.5346 116.564 52.7565 116.553 52.7483C116.257 52.5111 116.2 52.0796 116.437 51.783C116.674 51.4865 117.096 51.4302 117.401 51.6572C117.452 51.6981 118.636 52.6286 119.388 54.5294C120.063 56.2431 120.505 59.1286 118.796 63.1196C118.702 63.3629 118.477 63.5183 118.238 63.5449Z" fill="#134500"/>
<path d="M131.254 36.7117C131.217 36.7158 131.18 36.7199 131.133 36.7158C130.814 36.6954 130.546 36.4551 130.492 36.1442C130.334 35.2209 128.64 34.2353 127.617 33.8273C127.266 33.6893 127.091 33.2895 127.228 32.9296C127.366 32.5788 127.765 32.3948 128.126 32.541C128.38 32.6432 130.107 33.3456 131.129 34.499C131.694 33.5419 132.714 32.3291 134.404 31.778C134.764 31.6634 135.159 31.8618 135.273 32.2217C135.388 32.5816 135.19 32.9763 134.83 33.0908C132.564 33.8271 131.849 36.1984 131.842 36.2178C131.76 36.4878 131.53 36.681 131.254 36.7117Z" fill="#134500"/>
<path d="M108.971 116.775L95.2387 122.894C95.2387 122.894 95.2387 122.894 95.2376 122.885C93.7265 126.807 93.2461 130.531 93.2461 130.531C93.2461 130.531 99.773 136.783 108.829 122.622C111.551 118.36 112.24 114.166 111.866 110.388C110.322 113.848 108.971 116.775 108.971 116.775Z" fill="#012C0B"/>
<path d="M98.8198 106.248C98.6644 106.442 98.5008 106.647 98.328 106.852C89.8015 113.79 89.9338 123.781 89.9338 123.781L93.2378 130.541C93.2378 130.541 93.7182 126.817 95.2293 122.895C95.3684 122.469 99.5081 109.59 98.8198 106.248Z" fill="#1A3A02"/>
<path d="M104.435 95.0688C104.435 95.0688 104.436 95.078 104.428 95.0882C106.018 100.091 109.296 112.565 103.005 114.14C99.1259 115.111 96.6997 119.098 95.2396 122.894C95.2407 122.903 95.2407 122.903 95.2407 122.903L108.973 116.784C108.973 116.784 110.324 113.857 111.878 110.396C111.013 101.614 104.435 95.0688 104.435 95.0688Z" fill="#1A3A02"/>
<path d="M95.2376 122.884C96.6976 119.089 99.1239 115.102 103.003 114.13C109.294 112.555 106.016 100.082 104.426 95.0789C104.369 95.402 103.381 100.515 98.8199 106.248C99.5081 109.591 95.3685 122.469 95.2376 122.884Z" fill="#2D540B"/>
<path d="M94.9305 29.0289C92.906 29.254 91.2209 29.0966 89.8936 28.5547C88.4294 27.9535 87.9426 27.0946 87.8853 26.9985C87.7207 26.6907 87.8178 26.3073 88.1031 26.1079C90.6706 24.3133 95.0756 25.7242 96.5726 26.2845C97.6012 24.9776 100.848 21.2443 104.318 21.371C104.664 21.3792 104.945 21.646 104.983 21.9865C105.004 22.1798 105.425 26.8005 97.3171 28.6239C96.4715 28.8111 95.676 28.9461 94.9305 29.0289ZM89.6492 26.8583C90.4468 27.4125 92.2403 28.1262 95.8692 27.4992C94.3159 26.9359 91.5152 26.2131 89.6492 26.8583ZM103.536 22.7995C100.992 23.2127 98.5297 26.039 97.68 27.1116C102.197 25.9294 103.28 23.8527 103.536 22.7995Z" fill="#CDB30C"/>
<path d="M99.954 44.5504C97.9294 44.7755 96.2443 44.6181 94.9171 44.0762C93.4528 43.475 92.966 42.6161 92.9088 42.52C92.7441 42.2122 92.8413 41.8288 93.1265 41.6294C95.694 39.8348 100.099 41.2457 101.596 41.8059C102.625 40.4991 105.871 36.7658 109.341 36.8925C109.687 36.9006 109.968 37.1675 110.006 37.508C110.028 37.7013 110.448 42.322 102.341 44.1454C101.495 44.3326 100.709 44.4666 99.954 44.5504ZM94.6818 42.3788C95.4794 42.933 97.2729 43.6466 100.902 43.0197C99.3394 42.4574 96.5397 41.7438 94.6818 42.3788ZM108.559 38.321C106.016 38.7433 103.562 41.5594 102.713 42.6321C105.863 41.8068 107.315 40.5368 107.973 39.5879C108.302 39.1042 108.476 38.6655 108.559 38.321Z" fill="#CDB30C"/>
<path d="M103.13 67.0129C101.105 67.2379 99.4201 67.0805 98.0928 66.5386C96.6286 65.9374 96.1418 65.0785 96.0846 64.9824C95.9199 64.6746 96.017 64.2912 96.3023 64.0918C98.8698 62.2972 103.275 63.7081 104.772 64.2684C105.8 62.9615 109.047 59.2282 112.517 59.3549C112.863 59.363 113.144 59.6299 113.182 59.9704C113.203 60.1637 113.624 64.7844 105.516 66.6078C104.671 66.795 103.884 66.929 103.13 67.0129ZM97.8576 64.8412C98.6552 65.3954 100.449 66.109 104.078 65.4821C102.515 64.9198 99.7145 64.197 97.8576 64.8412ZM111.735 60.7834C109.191 61.1965 106.729 64.0229 105.879 65.0955C110.406 63.9123 111.479 61.8366 111.735 60.7834Z" fill="#CDB30C"/>
<path d="M102.052 91.495C100.027 91.72 98.342 91.5626 97.0147 91.0208C95.5504 90.4196 95.0637 89.5607 95.0064 89.4646C94.8418 89.1568 94.9389 88.7733 95.2242 88.5739C97.7917 86.7793 102.197 88.1902 103.694 88.7505C104.722 87.4437 107.969 83.7104 111.439 83.837C111.785 83.8452 112.066 84.1121 112.104 84.4526C112.125 84.6458 112.546 89.2666 104.438 91.09C103.593 91.2772 102.797 91.4122 102.052 91.495ZM96.7703 89.3244C97.5678 89.8786 99.3614 90.5922 102.99 89.9653C101.437 89.4019 98.6363 88.6791 96.7703 89.3244ZM110.648 85.2666C108.105 85.6889 105.651 88.505 104.801 89.5777C107.951 88.7524 109.403 87.4824 110.062 86.5335C110.399 86.0488 110.564 85.6019 110.648 85.2666Z" fill="#CDB30C"/>
<path d="M98.4768 123.698C97.4093 123.817 96.1506 123.808 94.6495 123.63C91.494 123.235 89.1534 122.378 87.6932 121.059C86.5142 120.006 86.3496 119.028 86.3373 118.917C86.2892 118.569 86.505 118.247 86.8393 118.154C89.8598 117.333 93.5266 120.149 94.7506 121.187C96.1617 120.304 100.478 117.895 103.704 119.176C104.025 119.299 104.203 119.643 104.119 119.978C104.071 120.133 103.281 123.164 98.4768 123.698ZM95.5114 122.332C98.7579 122.624 100.551 121.912 101.493 121.248C101.977 120.906 102.281 120.546 102.482 120.253C99.9327 119.782 96.6699 121.607 95.5114 122.332ZM88.0378 119.381C88.6002 120.166 90.0471 121.449 93.677 122.089C92.404 121.029 90.0071 119.413 88.0378 119.381Z" fill="#CDB30C"/>
<path d="M92.0599 152.714C90.7531 152.86 89.5997 152.792 88.6078 152.502C87.0873 152.065 86.5127 151.253 86.4472 151.167C86.257 150.881 86.3071 150.494 86.5699 150.259C88.9318 148.208 93.4606 149.14 95.0056 149.545C95.8675 148.164 98.6159 144.225 102.002 143.849C102.067 143.842 102.122 143.835 102.187 143.828C102.528 143.8 102.834 144.036 102.908 144.372C102.948 144.563 103.854 149.112 95.9904 151.784C94.5537 152.269 93.247 152.582 92.0599 152.714ZM88.1906 150.843C89.0434 151.307 90.8993 151.828 94.4484 150.818C92.8307 150.43 89.9708 150.012 88.1906 150.843ZM101.562 145.332C99.0761 146.019 96.93 149.089 96.2009 150.242C100.564 148.592 101.421 146.41 101.562 145.332Z" fill="#CDB30C"/>
<path d="M105 171.334C103.703 171.478 102.98 171.093 102.891 171.047C102.583 170.876 102.458 170.508 102.59 170.186C103.777 167.287 108.247 166.101 109.812 165.759C109.973 164.111 110.687 159.215 113.676 157.439C113.973 157.266 114.353 157.326 114.569 157.6C114.689 157.754 117.537 161.416 111.701 167.328C109.474 169.588 107.358 170.923 105.422 171.278C105.276 171.303 105.138 171.319 105 171.334ZM104.309 169.976C105.281 170.008 107.169 169.639 109.893 167.157C108.275 167.523 105.526 168.434 104.309 169.976ZM113.791 159.065C111.877 160.787 111.33 164.5 111.192 165.857C114.36 162.421 114.147 160.088 113.791 159.065Z" fill="#CDB30C"/>
<path d="M137.683 187.275C137.527 187.292 137.424 187.285 137.396 187.288C137.049 187.271 136.767 186.994 136.747 186.643C136.53 183.518 140.021 180.475 141.27 179.479C140.678 177.924 139.158 173.22 141.052 170.308C141.234 170.017 141.604 169.911 141.918 170.053C142.095 170.136 146.27 172.159 143.643 180.044C142.637 183.063 141.336 185.182 139.753 186.364C138.851 187.052 138.079 187.231 137.683 187.275ZM141.946 180.699C140.656 181.746 138.598 183.772 138.188 185.7C139.067 185.304 140.605 184.136 141.946 180.699ZM141.87 171.717C140.915 174.105 142.065 177.667 142.544 178.955C143.463 175.825 143.123 173.935 142.651 172.878C142.415 172.346 142.121 171.968 141.87 171.717Z" fill="#CDB30C"/>
<path d="M164.744 181.211C162.701 181.438 160.632 181.594 158.553 181.666C151.175 181.927 143.802 181.219 136.631 179.566C122.326 176.256 109.926 169.38 101.705 160.213C96.207 154.079 92.7997 147.228 91.5684 139.838C90.2327 131.844 91.5238 123.511 95.3926 115.069C105.968 92.0286 105.618 69.4382 103.468 54.5382C101.131 38.3734 96.2258 27.5155 96.1767 27.4091C96.0172 27.0635 96.1674 26.6555 96.513 26.496C96.8587 26.3365 97.2666 26.4868 97.4262 26.8324C97.4753 26.9387 102.452 37.9377 104.819 54.2856C106.212 63.8849 106.444 73.4362 105.525 82.6777C104.367 94.2281 101.38 105.32 96.6483 115.638C89.433 131.355 91.5932 146.85 102.729 159.279C119.628 178.13 153.015 185.487 180.409 176.386C180.768 176.263 181.162 176.461 181.277 176.821C181.401 177.18 181.202 177.574 180.842 177.689C175.678 179.418 170.275 180.596 164.744 181.211Z" fill="#CDB30C"/>
<path d="M136.714 166.98C136.714 166.98 135.804 167.342 134.424 167.999C135.804 167.342 136.714 166.98 136.714 166.98Z" fill="#012C0B"/>
<path d="M122.512 176.999C125.162 172.848 131.124 169.576 134.424 167.998C135.804 167.342 136.714 166.98 136.714 166.98C136.714 166.98 125.972 159.267 116.579 169.218C107.176 179.169 101.163 175.114 101.163 175.114C102.483 177.259 118.471 183.14 122.512 176.999Z" fill="#1A3A02"/>
<path d="M136.714 166.98C136.714 166.98 135.804 167.342 134.423 167.999C131.168 169.553 125.277 172.798 122.511 176.999C122.511 176.999 123.298 183.154 113.323 184.523L112.141 185.372C115.676 187.336 119.976 188.638 124.894 188.128C139.52 186.614 141.272 178.575 136.714 166.98Z" fill="#012C0B"/>
<path d="M122.511 176.999C125.277 172.797 131.159 169.563 134.423 167.998C131.132 169.575 125.161 172.847 122.511 176.999Z" fill="#012C0B"/>
<path d="M122.512 176.999C118.462 183.142 102.474 177.261 101.164 175.115C101.164 175.115 104.639 180.644 110.735 184.531C110.846 184.603 110.956 184.675 111.065 184.737L113.324 184.523C123.299 183.154 122.512 176.999 122.512 176.999Z" fill="#2D540B"/>
<path d="M157.662 138.622C156.35 147.609 150.553 148.505 150.553 148.505C150.419 148.641 150.266 148.779 150.114 148.917C148.994 149.908 148.076 150.951 147.319 152.013C143.643 157.163 143.745 162.611 143.745 162.611C153.168 166.083 161.651 160.351 161.572 149.078C161.535 144.554 159.813 141.131 157.662 138.622Z" fill="#012C0B"/>
<path d="M150.115 148.917C150.267 148.779 150.41 148.642 150.553 148.505L147.29 143.371C147.259 143.421 147.228 143.48 147.196 143.53C137.974 153.173 143.455 162.504 143.746 162.612C143.746 162.612 143.634 157.165 147.319 152.013C148.077 150.951 149.004 149.907 150.115 148.917Z" fill="#1A3A02"/>
<path d="M149.141 132.703C149.141 132.703 156.295 142.668 150.553 148.505C150.553 148.505 156.351 147.609 157.662 138.622C154.021 134.359 149.141 132.703 149.141 132.703Z" fill="#2D540B"/>
<path d="M149.141 132.703C149.141 132.703 150.898 137.361 147.289 143.371L150.552 148.505C156.295 142.668 149.141 132.703 149.141 132.703Z" fill="#1A3A02"/>
<path d="M96.2941 162.231C100.561 159.548 106.348 149.924 106.348 149.924L110.817 145.962L103.207 146.808C102.664 146.868 102.161 147.12 101.796 147.524C100.441 148.997 97.1118 152.824 95.573 156.581C95.1395 157.626 94.4207 158.535 93.4749 159.162C90.6559 161.041 88.1253 162.664 86.2244 162.409C86.2234 162.4 92.017 164.905 96.2941 162.231Z" fill="#1A3A02"/>
<path d="M110.824 145.961L106.345 149.924C106.345 149.924 104.231 153.448 101.606 156.824L100.237 166.804C105.212 166.466 110.386 163.562 113.649 154.702C113.649 154.702 113.834 147.983 110.824 145.961Z" fill="#012C0B"/>
<path d="M101.609 156.824C99.8978 159.026 97.9746 161.168 96.2936 162.222C92.0267 164.904 86.2331 162.399 86.2331 162.399C86.2331 162.399 93.0381 167.297 100.25 166.803L101.609 156.824Z" fill="#2D540B"/>
<path d="M112.606 42.5479C113.169 46.1839 117.942 52.8362 117.942 52.8362L119.306 56.9794L120.939 51.6367C121.056 51.2604 121.028 50.8442 120.867 50.4802C120.271 49.1489 118.662 45.8156 116.6 43.697C116.023 43.1091 115.623 42.3617 115.477 41.5488C115.03 39.1203 114.677 36.9516 115.392 35.7634C115.401 35.7532 112.044 38.9118 112.606 42.5479Z" fill="#1A3A02"/>
<path d="M119.316 56.9692L117.952 52.826C117.952 52.826 116.2 50.3935 114.695 47.6635L108.404 43.8722C107.193 47.3049 107.652 51.6045 112.641 56.3416C112.641 56.3416 117.081 58.4008 119.316 56.9692Z" fill="#012C0B"/>
<path d="M114.696 47.6634C113.715 45.8812 112.833 43.9763 112.609 42.5479C112.046 38.9118 115.394 35.7542 115.394 35.7542C115.394 35.7542 110.153 38.8986 108.396 43.8732L114.696 47.6634Z" fill="#2D540B"/>
<path d="M132.521 72.8577C127.886 74.407 117.126 72.8174 117.126 72.8174L111.405 73.7327L116.718 68.5586C117.096 68.1905 117.593 67.9676 118.121 67.9369C120.055 67.8243 124.969 67.6974 128.73 68.8445C129.781 69.1655 130.901 69.1808 131.955 68.8587C135.101 67.9035 137.869 66.9995 138.841 65.4289C138.841 65.4289 137.156 71.3084 132.521 72.8577Z" fill="#1A3A02"/>
<path d="M111.407 73.7235L117.128 72.8081C117.128 72.8081 121.068 73.3857 125.208 73.5031L133.518 78.6164C130.201 82.134 124.843 84.2201 116.208 81.2112C116.21 81.2296 111.07 77.2266 111.407 73.7235Z" fill="#012C0B"/>
<path d="M125.205 73.5122C127.906 73.5847 130.687 73.4619 132.521 72.8576C137.156 71.3083 138.84 65.4287 138.84 65.4287C138.84 65.4287 138.325 73.5353 133.517 78.6347L125.205 73.5122Z" fill="#2D540B"/>
<path d="M117.804 132.403L114.266 126.303C113.754 125.894 112.886 125.795 112.886 125.795C111.373 129.447 109.291 133.014 109.12 136.163C108.813 141.871 113.666 143.959 113.666 143.959C113.666 143.959 115.784 138.711 117.804 132.403Z" fill="#1A3A02"/>
<path d="M117.804 132.403C115.783 138.702 113.666 143.959 113.666 143.959C118.369 143.771 121.432 140.152 121.432 140.152C124.613 136.249 123.063 129.769 121.709 125.969L117.804 132.403Z" fill="#012C0B"/>
<path d="M117.802 132.403C118.792 129.321 119.754 125.991 120.436 122.906L114.115 116.91C114.854 119.455 114.29 122.089 113.32 124.684L117.802 132.403Z" fill="#2D540B"/>
<path d="M120.445 122.905C119.763 125.99 118.792 129.321 117.811 132.402L121.726 125.967C121.076 124.139 120.476 122.93 120.476 122.93L120.445 122.905Z" fill="#012C0B"/>
<path d="M72.0473 119.407L65.7495 116.222C65.3139 115.739 65.1625 114.88 65.1625 114.88C68.7259 113.161 72.1615 110.879 75.2995 110.53C80.9775 109.899 83.3377 114.621 83.3377 114.621C83.3377 114.621 78.2201 117.025 72.0473 119.407Z" fill="#1A3A02"/>
<path d="M72.0445 119.407C78.2184 117.034 83.3441 114.62 83.3441 114.62C83.42 119.326 79.9824 122.596 79.9824 122.596C76.2708 125.999 69.7103 124.809 65.8401 123.683L72.0445 119.407Z" fill="#012C0B"/>
<path d="M72.0437 119.407C69.0242 120.571 65.7512 121.718 62.7072 122.578L56.3612 116.613C58.9513 117.201 61.5372 116.494 64.0781 115.382L72.0437 119.407Z" fill="#2D540B"/>
<path d="M62.7108 122.578C65.7548 121.718 69.0268 120.562 72.0473 119.407L65.8418 123.674C63.9736 123.127 62.7323 122.603 62.7323 122.603L62.7108 122.578Z" fill="#012C0B"/>
<path d="M91.6019 135.344L91.4383 137.309L86.5734 141.148L84.7543 139.869L65.3943 146.651C66.3421 147.384 77.5451 155.558 91.1514 146.462C91.1514 146.462 95.6379 141.063 91.6019 135.344Z" fill="#012C0B"/>
<path d="M74.2399 137.143C71.4884 139.21 68.3494 142.232 65.3331 146.611C65.3331 146.611 65.3536 146.627 65.3945 146.66L84.7443 139.87L74.2399 137.143Z" fill="#2D540B"/>
<path d="M84.7416 139.861L86.5607 141.14L91.4257 137.301L91.5892 135.336C91.4461 135.137 91.3029 134.939 91.1414 134.743C90.9789 137.556 84.7416 139.861 84.7416 139.861Z" fill="#012C0B"/>
<path d="M91.1516 134.751L82.2363 132.91C82.2363 132.91 79.4939 133.55 75.6882 136.106C75.2199 136.419 75.6831 136.982 76.358 137.69L84.7417 139.86C84.7417 139.86 90.9789 137.556 91.1516 134.751Z" fill="#1A3A02"/>
<path d="M94.5854 73.1708L93.1846 74.9009L96.6787 80.0185L98.6215 80.3149C98.8311 80.1892 99.0397 80.0542 99.2472 79.91C96.4588 79.5492 94.5854 73.1708 94.5854 73.1708Z" fill="#012C0B"/>
<path d="M98.62 80.3244L96.6773 80.028L93.1821 74.9012L94.5829 73.1711L89.1332 53.3928C88.3387 54.2916 79.4105 64.9077 87.5564 79.104C87.5574 79.1132 92.6415 83.9515 98.62 80.3244Z" fill="#012C0B"/>
<path d="M98.0231 62.8759C96.1467 59.9915 93.353 56.65 89.1933 53.3393C89.1933 53.3393 89.177 53.3597 89.135 53.4017L94.5848 73.1799L98.0231 62.8759Z" fill="#2D540B"/>
<path d="M99.2481 79.9192L101.702 71.15C101.702 71.15 101.244 68.3688 98.9572 64.3933C98.679 63.9025 98.0839 64.332 97.3334 64.9558L94.5944 73.1697C94.5852 73.1708 96.4587 79.5491 99.2481 79.9192Z" fill="#1A3A02"/>
<path d="M62.9458 105.372C71.9138 119.924 84.5436 110.676 84.5436 110.676L84.4382 108.806C82.5036 108.248 79.4708 107.867 74.621 107.652C72.5514 107.556 70.5779 106.732 69.0615 105.326C57.3605 94.5152 59.7813 82.2654 61.7423 76.7744C61.7474 76.7366 61.7545 76.7171 61.7545 76.7171C61.7545 76.7171 53.9778 90.8199 62.9458 105.372Z" fill="#012C0B"/>
<path d="M70.6944 89.0737C69.4152 88.5451 68.3088 87.9787 67.3578 87.3857C65.8725 96.2336 72.5213 107.186 72.602 107.327C73.2565 107.515 73.9303 107.626 74.6236 107.661C79.4734 107.876 82.497 108.258 84.4408 108.815L83.876 98.9558C83.875 98.9466 81.8103 93.6143 70.6944 89.0737Z" fill="#2D540B"/>
<path d="M67.3573 87.3858C60.4807 83.1007 61.593 77.4339 61.7443 76.7836C59.7833 82.2745 57.3614 94.5151 69.0635 105.335C70.0809 106.275 71.2926 106.95 72.6015 107.327C72.5207 107.187 65.8719 96.2337 67.3573 87.3858Z" fill="#1A3A0B"/>
<path d="M144.726 23.9226C144.726 23.9226 144.326 25.3552 138.713 27.5722C133.099 29.7893 132.371 33.8016 132.371 33.8016L136.551 33.4395C136.551 33.4395 145.656 27.7601 144.726 23.9226Z" fill="#2D540B"/>
<path d="M144.726 23.9226C145.656 27.7601 136.551 33.4395 136.551 33.4395L132.371 33.8016L136.043 34.5673C147.223 32.5607 144.726 23.9226 144.726 23.9226Z" fill="#1A3A02"/>
<path d="M121.469 24.3745C121.469 24.3745 121.53 25.5974 125.63 28.3652C129.729 31.133 129.589 34.4838 129.589 34.4838L126.306 33.442C126.307 33.4512 120.041 27.2816 121.469 24.3745Z" fill="#2D540B"/>
<path d="M121.467 24.3745C120.039 27.2815 126.305 33.4512 126.305 33.4512L129.589 34.493L126.519 34.4522C117.92 30.843 121.467 24.3745 121.467 24.3745Z" fill="#1A3A02"/>
</svg>
