<svg width="50" height="50" viewBox="0 0 50 50" fill="none" xmlns="http://www.w3.org/2000/svg">
<circle cx="25" cy="25" r="25" fill="#98D4FF" fill-opacity="0.15"/>
<path d="M25 6C14.7001 6 6 14.7001 6 25C6 35.2999 14.7001 44 25 44C35.2999 44 44 35.2999 44 25C44 14.7001 35.2999 6 25 6ZM25 15.5C28.2813 15.5 30.7 17.9168 30.7 21.2C30.7 24.4832 28.2813 26.9 25 26.9C21.7206 26.9 19.3 24.4832 19.3 21.2C19.3 17.9168 21.7206 15.5 25 15.5ZM15.2986 34.0668C17.0029 31.5588 19.8453 29.8868 23.1 29.8868H26.9C30.1566 29.8868 32.9971 31.5588 34.7014 34.0668C32.2732 36.666 28.8285 38.3 25 38.3C21.1715 38.3 17.7268 36.666 15.2986 34.0668Z" fill="#175F94"/>
</svg>
