<svg width="24" height="24" viewBox="0 0 24 24" fill="none" xmlns="http://www.w3.org/2000/svg">
<path d="M5.07825 19.7984C5.0772 19.7987 5.07612 19.7989 5.07501 19.7992C5.06473 19.8015 5.05195 19.8038 5.0364 19.8056C4.94634 19.8157 4.68114 19.8027 4.44007 19.5616C4.43979 19.5614 4.4395 19.5611 4.43921 19.5608C4.20052 19.3215 4.18661 19.0579 4.19676 18.9667C4.19863 18.9499 4.20113 18.9363 4.20369 18.9256C4.20387 18.9249 4.20405 18.9242 4.20422 18.9234C4.20425 18.9233 4.20427 18.9232 4.20429 18.9231C4.20435 18.9229 4.20441 18.9227 4.20446 18.9225C4.21588 18.9196 4.23088 18.9166 4.24996 18.9145C4.34155 18.9044 4.60439 18.9188 4.84278 19.1572C4.84307 19.1575 4.84336 19.1578 4.84364 19.1581C5.08168 19.3967 5.09644 19.6604 5.08606 19.7536C5.08414 19.7708 5.08155 19.7848 5.07888 19.7959C5.07876 19.7964 5.07863 19.7969 5.07851 19.7974C5.07842 19.7977 5.07834 19.7981 5.07825 19.7984ZM5.10991 19.7871C5.10995 19.7871 5.10902 19.7878 5.10701 19.7887C5.10887 19.7875 5.10988 19.787 5.10991 19.7871ZM4.2153 18.8927C4.21536 18.8927 4.21488 18.8937 4.21367 18.8955C4.21463 18.8935 4.21524 18.8926 4.2153 18.8927ZM4.1776 18.9318C4.17576 18.933 4.17477 18.9335 4.17473 18.9335C4.17468 18.9334 4.1756 18.9328 4.1776 18.9318ZM5.06657 19.8303C5.06651 19.8302 5.06701 19.8293 5.06825 19.8274C5.06725 19.8294 5.06663 19.8303 5.06657 19.8303ZM4.20321 5.07856C4.20317 5.0784 4.20312 5.07823 4.20308 5.07806C4.20296 5.07761 4.20285 5.07716 4.20273 5.0767C4.19989 5.0655 4.19708 5.05094 4.19503 5.03255C4.18499 4.94224 4.19841 4.67831 4.43836 4.43836C4.67676 4.19996 4.93959 4.18558 5.03118 4.19567C5.04988 4.19772 5.06465 4.20058 5.07597 4.20346C5.07634 4.20355 5.0767 4.20364 5.07706 4.20373C5.07715 4.20376 5.07724 4.20378 5.07734 4.20381C5.07753 4.20386 5.07773 4.20391 5.07792 4.20396C5.08088 4.21529 5.08388 4.23033 5.08602 4.24966C5.09592 4.33922 5.08271 4.60286 4.84278 4.84278C4.60188 5.08369 4.3373 5.09643 4.24826 5.08653C4.22983 5.08448 4.21531 5.08165 4.20421 5.07882C4.20387 5.07873 4.20354 5.07865 4.20321 5.07856ZM4.21395 5.10728C4.21388 5.10732 4.21326 5.10639 4.21225 5.10437C4.2135 5.10623 4.21401 5.10724 4.21395 5.10728ZM5.10642 4.21459C5.10638 4.21465 5.10539 4.21416 5.10355 4.21294C5.10554 4.21392 5.10645 4.21454 5.10642 4.21459ZM5.06909 4.17864C5.06784 4.17677 5.06734 4.17576 5.0674 4.17572C5.06746 4.17568 5.06809 4.17662 5.06909 4.17864ZM4.17464 5.06794C4.17469 5.06787 4.17572 5.06839 4.17762 5.06967C4.17556 5.06864 4.1746 5.068 4.17464 5.06794ZM12.6178 22.2879C12.6175 22.2884 12.6172 22.2888 12.6169 22.2893C12.6107 22.2998 12.602 22.3127 12.5898 22.3279C12.5301 22.4022 12.3341 22.5749 12.0017 22.5749C12.0011 22.5749 12.0006 22.5749 12 22.5749C11.6658 22.5743 11.4693 22.4002 11.4097 22.3259C11.3974 22.3106 11.3887 22.2975 11.3825 22.2871C11.3822 22.2867 11.382 22.2862 11.3817 22.2858C11.3818 22.2858 11.3818 22.2857 11.3818 22.2857C11.3878 22.2756 11.3963 22.263 11.4082 22.248C11.4657 22.1762 11.662 22 12 22C12.0006 22 12.0011 22 12.0017 22C12.3347 22.0006 12.5308 22.1743 12.5904 22.2487C12.602 22.2632 12.6104 22.2756 12.6165 22.2857C12.6169 22.2864 12.6173 22.2872 12.6178 22.2879ZM11.3686 22.3143C11.3685 22.3143 11.3687 22.3132 11.3694 22.3111C11.369 22.3132 11.3686 22.3143 11.3686 22.3143ZM11.3686 22.2569C11.3687 22.2569 11.369 22.258 11.3695 22.2602C11.3688 22.2581 11.3686 22.257 11.3686 22.2569ZM12.6304 22.3143C12.6311 22.3164 12.6314 22.3175 12.6313 22.3175C12.6312 22.3176 12.6309 22.3165 12.6304 22.3143ZM19.7958 18.9207C19.796 18.9213 19.7962 18.922 19.7963 18.9227C19.7988 18.9332 19.8012 18.9463 19.803 18.9625C19.8133 19.0539 19.7996 19.3183 19.5615 19.5583C19.5603 19.5596 19.559 19.5609 19.5577 19.5622C19.3215 19.7976 19.0606 19.8129 18.9676 19.8026C18.9486 19.8005 18.9336 19.7976 18.9221 19.7947C18.9221 19.7946 18.922 19.7946 18.9219 19.7946C18.9219 19.7943 18.9218 19.794 18.9217 19.7937C18.9191 19.783 18.9165 19.7693 18.9146 19.7521C18.9045 19.6618 18.918 19.3984 19.1556 19.1588C19.1569 19.1575 19.1582 19.1562 19.1595 19.155C19.3983 18.9168 19.6616 18.903 19.753 18.9133C19.7702 18.9152 19.7841 18.9178 19.795 18.9205C19.7952 18.9205 19.7955 18.9206 19.7958 18.9207ZM19.7846 18.889C19.7847 18.889 19.7853 18.89 19.7863 18.892C19.785 18.8901 19.7845 18.889 19.7846 18.889ZM18.8916 19.7834C18.8916 19.7834 18.8926 19.7839 18.8944 19.7851C18.8924 19.7841 18.8915 19.7835 18.8916 19.7834ZM18.9311 19.8221C18.9324 19.8239 18.9328 19.8249 18.9328 19.825C18.9327 19.825 18.9321 19.8241 18.9311 19.8221ZM19.8245 18.9304C19.8264 18.9314 19.8273 18.932 19.8273 18.932C19.8273 18.9321 19.8263 18.9316 19.8245 18.9304ZM18.8928 4.21523C18.8927 4.21518 18.8936 4.21456 18.8957 4.21357C18.8938 4.21479 18.8928 4.21529 18.8928 4.21523ZM18.914 4.24966C18.9161 4.23077 18.919 4.21597 18.9219 4.20474L19.3586 4.64143L19.3605 4.64337L19.7961 5.079C19.7852 5.08179 19.7708 5.08459 19.7525 5.08664C19.6634 5.09659 19.3994 5.08388 19.1588 4.8444C19.1583 4.84386 19.1578 4.84332 19.1572 4.84278C18.9173 4.60286 18.9041 4.33923 18.914 4.24966ZM19.0603 4.34145L18.9228 4.20427C18.9229 4.20425 18.923 4.20422 18.9231 4.2042C18.9344 4.20134 18.9491 4.19849 18.9678 4.19643C19.0601 4.18621 19.3233 4.20084 19.5616 4.43836C19.5624 4.43911 19.5632 4.43987 19.5639 4.44062C19.7999 4.67736 19.8152 4.93933 19.8048 5.03282C19.8028 5.05094 19.8001 5.06537 19.7973 5.07654L19.3618 4.64213L19.3598 4.64019L19.0605 4.34162L19.0603 4.34145ZM18.9326 4.17572C18.9327 4.17576 18.9322 4.17675 18.9309 4.17858C18.9319 4.1766 18.9325 4.17568 18.9326 4.17572ZM19.8223 5.07007C19.8242 5.06885 19.8252 5.06836 19.8252 5.06841C19.8252 5.06847 19.8243 5.06909 19.8223 5.07007ZM12.6287 1.6866C12.6291 1.6844 12.6294 1.68334 12.6295 1.68336C12.6296 1.68338 12.6294 1.68447 12.6287 1.6866ZM12 1.71334L12.6165 1.71222C12.6102 1.72305 12.6011 1.73675 12.5881 1.753C12.5283 1.8273 12.3324 2 12 2C11.6647 2 11.4679 1.8254 11.4087 1.75169C11.397 1.73703 11.3885 1.72454 11.3825 1.71445L12 1.71334ZM12 1.71086H11.3818C11.3878 1.70076 11.3963 1.68812 11.4082 1.67319C11.4657 1.60138 11.662 1.42514 12 1.42514C12.3341 1.42514 12.5305 1.59937 12.5896 1.67319C12.6016 1.68807 12.6101 1.7007 12.6161 1.71086H12ZM11.3684 1.68446C11.3685 1.68444 11.3688 1.68548 11.3693 1.68763C11.3686 1.68555 11.3683 1.68447 11.3684 1.68446ZM11.3686 1.73943C11.3685 1.73942 11.3687 1.73834 11.3694 1.73624C11.369 1.7384 11.3686 1.73945 11.3686 1.73943ZM12.6289 1.73708C12.6296 1.73919 12.6299 1.74028 12.6298 1.7403C12.6297 1.74032 12.6294 1.73926 12.6289 1.73708ZM12.6304 22.2615C12.6308 22.2593 12.6312 22.2582 12.6312 22.2582C12.6313 22.2582 12.6311 22.2593 12.6304 22.2615ZM1.71097 12.6182C1.71037 12.6178 1.70976 12.6175 1.70914 12.6171C1.7003 12.6116 1.68961 12.6042 1.6772 12.5943C1.6082 12.5393 1.42857 12.343 1.42857 12C1.42857 11.6587 1.60747 11.4619 1.67786 11.4058C1.68995 11.3962 1.70042 11.3889 1.70914 11.3835C1.70977 11.3831 1.71039 11.3827 1.711 11.3823C1.72193 11.3887 1.73566 11.3978 1.75189 11.4109C1.82787 11.4719 2 11.6687 2 12C2 12.333 1.82715 12.5292 1.75255 12.5892C1.73595 12.6026 1.72198 12.6118 1.71097 12.6182ZM1.74023 11.3682C1.74025 11.3682 1.73923 11.3686 1.73714 11.3691C1.73917 11.3683 1.74021 11.3681 1.74023 11.3682ZM1.68098 11.3687C1.681 11.3687 1.6821 11.3689 1.68423 11.3696C1.68202 11.3691 1.68096 11.3688 1.68098 11.3687ZM1.6852 12.6303C1.68309 12.631 1.68199 12.6312 1.68197 12.6312C1.68195 12.6311 1.68301 12.6308 1.6852 12.6303ZM1.73612 12.6308C1.7382 12.6313 1.73922 12.6316 1.7392 12.6317C1.73919 12.6318 1.73814 12.6315 1.73612 12.6308ZM22.3131 12.6315C22.313 12.6316 22.312 12.6314 22.3099 12.6307C22.3121 12.6311 22.3131 12.6315 22.3131 12.6315ZM22.3236 12.5909C22.3081 12.6034 22.295 12.6121 22.2846 12.6182C22.2844 12.6181 22.2842 12.618 22.284 12.6178C22.2743 12.612 22.2623 12.6039 22.2482 12.5926C22.1774 12.5359 22 12.3396 22 12C22 11.662 22.1766 11.4652 22.2489 11.4075C22.2626 11.3965 22.2744 11.3885 22.284 11.3827C22.2842 11.3825 22.2844 11.3824 22.2846 11.3823C22.2949 11.3884 22.3078 11.397 22.3229 11.4092C22.397 11.4686 22.5714 11.6654 22.5714 12C22.5714 12.3363 22.3963 12.5326 22.3236 12.5909ZM22.3141 11.3684C22.3141 11.3684 22.313 11.3688 22.3109 11.3692C22.313 11.3685 22.3141 11.3683 22.3141 11.3684ZM22.2549 11.3686C22.2549 11.3685 22.256 11.3687 22.2581 11.3694C22.2559 11.369 22.2549 11.3686 22.2549 11.3686ZM22.2591 12.6305C22.2569 12.6312 22.2559 12.6314 22.2559 12.6313C22.2559 12.6313 22.257 12.6309 22.2591 12.6305Z" fill="#29231E" stroke="black" stroke-width="4"/>
</svg>
